solid OpenSCAD_Model
  facet normal -1 0 0
    outer loop
      vertex 0 0 0
      vertex 0 0 4
      vertex 0 25 0
    endloop
  endfacet
  facet normal -1 0 0
    outer loop
      vertex 0 25 0
      vertex 0 0 4
      vertex 0 25 4
    endloop
  endfacet
  facet normal 0 -1 0
    outer loop
      vertex 0 0 4
      vertex 0 0 0
      vertex 25 0 0
    endloop
  endfacet
  facet normal 0 -1 0
    outer loop
      vertex 25 0 4
      vertex 0 0 4
      vertex 25 0 0
    endloop
  endfacet
  facet normal 0 0 -1
    outer loop
      vertex 13.6498 23.4397 0
      vertex 0 25 0
      vertex 25 25 0
    endloop
  endfacet
  facet normal 0 0 -1
    outer loop
      vertex 0 0 0
      vertex 0 25 0
      vertex 1.5 12.5 0
    endloop
  endfacet
  facet normal 0 0 -1
    outer loop
      vertex 0 0 0
      vertex 1.5 12.5 0
      vertex 1.74038 10.213 0
    endloop
  endfacet
  facet normal 0 0 -1
    outer loop
      vertex 0 0 0
      vertex 1.74038 10.213 0
      vertex 2.451 8.0259 0
    endloop
  endfacet
  facet normal 0 0 -1
    outer loop
      vertex 0 0 0
      vertex 2.451 8.0259 0
      vertex 3.60081 6.03436 0
    endloop
  endfacet
  facet normal 0 0 -1
    outer loop
      vertex 0 0 0
      vertex 3.60081 6.03436 0
      vertex 5.13956 4.32541 0
    endloop
  endfacet
  facet normal 0 0 -1
    outer loop
      vertex 0 0 0
      vertex 5.13956 4.32541 0
      vertex 7 2.97372 0
    endloop
  endfacet
  facet normal 0 0 -1
    outer loop
      vertex 0 0 0
      vertex 7 2.97372 0
      vertex 9.10081 2.03838 0
    endloop
  endfacet
  facet normal 0 0 -1
    outer loop
      vertex 0 0 0
      vertex 9.10081 2.03838 0
      vertex 11.3502 1.56026 0
    endloop
  endfacet
  facet normal 0 0 -1
    outer loop
      vertex 0 0 0
      vertex 11.3502 1.56026 0
      vertex 25 0 0
    endloop
  endfacet
  facet normal 0 0 -1
    outer loop
      vertex 15.8992 2.03838 0
      vertex 25 0 0
      vertex 13.6498 1.56026 0
    endloop
  endfacet
  facet normal 0 0 -1
    outer loop
      vertex 18 2.97372 0
      vertex 25 0 0
      vertex 15.8992 2.03838 0
    endloop
  endfacet
  facet normal 0 0 -1
    outer loop
      vertex 19.8604 4.32541 0
      vertex 25 0 0
      vertex 18 2.97372 0
    endloop
  endfacet
  facet normal 0 0 -1
    outer loop
      vertex 21.3992 6.03436 0
      vertex 25 0 0
      vertex 19.8604 4.32541 0
    endloop
  endfacet
  facet normal 0 0 -1
    outer loop
      vertex 23.2596 14.787 0
      vertex 25 25 0
      vertex 23.5 12.5 0
    endloop
  endfacet
  facet normal 0 0 -1
    outer loop
      vertex 25 0 0
      vertex 21.3992 6.03436 0
      vertex 22.549 8.0259 0
    endloop
  endfacet
  facet normal 0 0 -1
    outer loop
      vertex 25 0 0
      vertex 22.549 8.0259 0
      vertex 23.2596 10.213 0
    endloop
  endfacet
  facet normal 0 0 -1
    outer loop
      vertex 25 0 0
      vertex 23.2596 10.213 0
      vertex 25 25 0
    endloop
  endfacet
  facet normal 0 0 -1
    outer loop
      vertex 23.2596 10.213 0
      vertex 23.5 12.5 0
      vertex 25 25 0
    endloop
  endfacet
  facet normal 0 0 -1
    outer loop
      vertex 22.549 16.9741 0
      vertex 25 25 0
      vertex 23.2596 14.787 0
    endloop
  endfacet
  facet normal 0 0 -1
    outer loop
      vertex 3.60081 18.9656 0
      vertex 0 25 0
      vertex 5.13956 20.6746 0
    endloop
  endfacet
  facet normal 0 0 -1
    outer loop
      vertex 11.3502 23.4397 0
      vertex 0 25 0
      vertex 13.6498 23.4397 0
    endloop
  endfacet
  facet normal 0 0 -1
    outer loop
      vertex 22.549 16.9741 0
      vertex 21.3992 18.9656 0
      vertex 25 25 0
    endloop
  endfacet
  facet normal 0 0 -1
    outer loop
      vertex 7 22.0263 0
      vertex 0 25 0
      vertex 9.10081 22.9616 0
    endloop
  endfacet
  facet normal 0 0 -1
    outer loop
      vertex 21.3992 18.9656 0
      vertex 19.8604 20.6746 0
      vertex 25 25 0
    endloop
  endfacet
  facet normal 0 0 -1
    outer loop
      vertex 19.8604 20.6746 0
      vertex 18 22.0263 0
      vertex 25 25 0
    endloop
  endfacet
  facet normal 0 0 -1
    outer loop
      vertex 9.10081 22.9616 0
      vertex 0 25 0
      vertex 11.3502 23.4397 0
    endloop
  endfacet
  facet normal 0 0 -1
    outer loop
      vertex 18 22.0263 0
      vertex 15.8992 22.9616 0
      vertex 25 25 0
    endloop
  endfacet
  facet normal 0 0 -1
    outer loop
      vertex 15.8992 22.9616 0
      vertex 13.6498 23.4397 0
      vertex 25 25 0
    endloop
  endfacet
  facet normal 0 0 -1
    outer loop
      vertex 5.13956 20.6746 0
      vertex 0 25 0
      vertex 7 22.0263 0
    endloop
  endfacet
  facet normal 0 0 -1
    outer loop
      vertex 2.451 16.9741 0
      vertex 0 25 0
      vertex 3.60081 18.9656 0
    endloop
  endfacet
  facet normal 0 0 -1
    outer loop
      vertex 1.74038 14.787 0
      vertex 0 25 0
      vertex 2.451 16.9741 0
    endloop
  endfacet
  facet normal 0 0 -1
    outer loop
      vertex 1.5 12.5 0
      vertex 0 25 0
      vertex 1.74038 14.787 0
    endloop
  endfacet
  facet normal 0 0 -1
    outer loop
      vertex 13.6498 1.56026 0
      vertex 25 0 0
      vertex 11.3502 1.56026 0
    endloop
  endfacet
  facet normal 0 1 0
    outer loop
      vertex 0 25 0
      vertex 0 25 4
      vertex 25 25 0
    endloop
  endfacet
  facet normal 0 1 0
    outer loop
      vertex 25 25 0
      vertex 0 25 4
      vertex 25 25 4
    endloop
  endfacet
  facet normal 0 0 1
    outer loop
      vertex 13.6498 1.56026 4
      vertex 0 0 4
      vertex 25 0 4
    endloop
  endfacet
  facet normal 0 0 1
    outer loop
      vertex 13.6498 1.56026 4
      vertex 11.3502 1.56026 4
      vertex 0 0 4
    endloop
  endfacet
  facet normal 0 0 1
    outer loop
      vertex 0 25 4
      vertex 0 0 4
      vertex 1.74038 10.213 4
    endloop
  endfacet
  facet normal 0 0 1
    outer loop
      vertex 0 25 4
      vertex 1.74038 10.213 4
      vertex 1.5 12.5 4
    endloop
  endfacet
  facet normal 0 0 1
    outer loop
      vertex 0 25 4
      vertex 1.5 12.5 4
      vertex 1.74038 14.787 4
    endloop
  endfacet
  facet normal 0 0 1
    outer loop
      vertex 0 25 4
      vertex 1.74038 14.787 4
      vertex 2.451 16.9741 4
    endloop
  endfacet
  facet normal 0 0 1
    outer loop
      vertex 11.3502 23.4397 4
      vertex 13.6498 23.4397 4
      vertex 25 25 4
    endloop
  endfacet
  facet normal 0 0 1
    outer loop
      vertex 0 25 4
      vertex 2.451 16.9741 4
      vertex 3.60081 18.9656 4
    endloop
  endfacet
  facet normal 0 0 1
    outer loop
      vertex 7 22.0263 4
      vertex 0 25 4
      vertex 5.13956 20.6746 4
    endloop
  endfacet
  facet normal 0 0 1
    outer loop
      vertex 23.5 12.5 4
      vertex 23.2596 10.213 4
      vertex 25 0 4
    endloop
  endfacet
  facet normal 0 0 1
    outer loop
      vertex 9.10081 22.9616 4
      vertex 0 25 4
      vertex 7 22.0263 4
    endloop
  endfacet
  facet normal 0 0 1
    outer loop
      vertex 11.3502 23.4397 4
      vertex 0 25 4
      vertex 9.10081 22.9616 4
    endloop
  endfacet
  facet normal 0 0 1
    outer loop
      vertex 25 25 4
      vertex 0 25 4
      vertex 11.3502 23.4397 4
    endloop
  endfacet
  facet normal 0 0 1
    outer loop
      vertex 23.2596 10.213 4
      vertex 22.549 8.0259 4
      vertex 25 0 4
    endloop
  endfacet
  facet normal 0 0 1
    outer loop
      vertex 21.3992 6.03436 4
      vertex 19.8604 4.32541 4
      vertex 25 0 4
    endloop
  endfacet
  facet normal 0 0 1
    outer loop
      vertex 25 25 4
      vertex 15.8992 22.9616 4
      vertex 18 22.0263 4
    endloop
  endfacet
  facet normal 0 0 1
    outer loop
      vertex 25 25 4
      vertex 18 22.0263 4
      vertex 19.8604 20.6746 4
    endloop
  endfacet
  facet normal 0 0 1
    outer loop
      vertex 22.549 8.0259 4
      vertex 21.3992 6.03436 4
      vertex 25 0 4
    endloop
  endfacet
  facet normal 0 0 1
    outer loop
      vertex 25 25 4
      vertex 19.8604 20.6746 4
      vertex 21.3992 18.9656 4
    endloop
  endfacet
  facet normal 0 0 1
    outer loop
      vertex 25 25 4
      vertex 21.3992 18.9656 4
      vertex 22.549 16.9741 4
    endloop
  endfacet
  facet normal 0 0 1
    outer loop
      vertex 25 25 4
      vertex 23.2596 14.787 4
      vertex 25 0 4
    endloop
  endfacet
  facet normal 0 0 1
    outer loop
      vertex 25 25 4
      vertex 22.549 16.9741 4
      vertex 23.2596 14.787 4
    endloop
  endfacet
  facet normal 0 0 1
    outer loop
      vertex 23.2596 14.787 4
      vertex 23.5 12.5 4
      vertex 25 0 4
    endloop
  endfacet
  facet normal 0 0 1
    outer loop
      vertex 18 2.97372 4
      vertex 15.8992 2.03838 4
      vertex 25 0 4
    endloop
  endfacet
  facet normal 0 0 1
    outer loop
      vertex 15.8992 2.03838 4
      vertex 13.6498 1.56026 4
      vertex 25 0 4
    endloop
  endfacet
  facet normal 0 0 1
    outer loop
      vertex 11.3502 1.56026 4
      vertex 9.10081 2.03838 4
      vertex 0 0 4
    endloop
  endfacet
  facet normal 0 0 1
    outer loop
      vertex 7 2.97372 4
      vertex 0 0 4
      vertex 9.10081 2.03838 4
    endloop
  endfacet
  facet normal 0 0 1
    outer loop
      vertex 5.13956 4.32541 4
      vertex 0 0 4
      vertex 7 2.97372 4
    endloop
  endfacet
  facet normal 0 0 1
    outer loop
      vertex 3.60081 6.03436 4
      vertex 0 0 4
      vertex 5.13956 4.32541 4
    endloop
  endfacet
  facet normal 0 0 1
    outer loop
      vertex 2.451 8.0259 4
      vertex 0 0 4
      vertex 3.60081 6.03436 4
    endloop
  endfacet
  facet normal 0 0 1
    outer loop
      vertex 1.74038 10.213 4
      vertex 0 0 4
      vertex 2.451 8.0259 4
    endloop
  endfacet
  facet normal 0 0 1
    outer loop
      vertex 3.60081 18.9656 4
      vertex 5.13956 20.6746 4
      vertex 0 25 4
    endloop
  endfacet
  facet normal 0 0 1
    outer loop
      vertex 13.6498 23.4397 4
      vertex 15.8992 22.9616 4
      vertex 25 25 4
    endloop
  endfacet
  facet normal 0 0 1
    outer loop
      vertex 19.8604 4.32541 4
      vertex 18 2.97372 4
      vertex 25 0 4
    endloop
  endfacet
  facet normal 1 0 0
    outer loop
      vertex 25 0 4
      vertex 25 0 0
      vertex 25 25 0
    endloop
  endfacet
  facet normal 1 0 0
    outer loop
      vertex 25 25 4
      vertex 25 0 4
      vertex 25 25 0
    endloop
  endfacet
  facet normal 0.994522 -0.104528 0
    outer loop
      vertex 1.74038 14.787 0
      vertex 1.74038 14.787 4
      vertex 1.5 12.5 4
    endloop
  endfacet
  facet normal 0.994522 -0.104528 0
    outer loop
      vertex 1.5 12.5 0
      vertex 1.74038 14.787 0
      vertex 1.5 12.5 4
    endloop
  endfacet
  facet normal 0.994522 0.104528 0
    outer loop
      vertex 1.5 12.5 4
      vertex 1.74038 10.213 4
      vertex 1.74038 10.213 0
    endloop
  endfacet
  facet normal 0.994522 0.104528 0
    outer loop
      vertex 1.5 12.5 0
      vertex 1.5 12.5 4
      vertex 1.74038 10.213 0
    endloop
  endfacet
  facet normal 0.951056 -0.309017 0
    outer loop
      vertex 2.451 16.9741 0
      vertex 2.451 16.9741 4
      vertex 1.74038 14.787 4
    endloop
  endfacet
  facet normal 0.951056 -0.309017 0
    outer loop
      vertex 1.74038 14.787 0
      vertex 2.451 16.9741 0
      vertex 1.74038 14.787 4
    endloop
  endfacet
  facet normal 0.866025 -0.5 0
    outer loop
      vertex 3.60081 18.9656 0
      vertex 3.60081 18.9656 4
      vertex 2.451 16.9741 4
    endloop
  endfacet
  facet normal 0.866025 -0.5 0
    outer loop
      vertex 2.451 16.9741 0
      vertex 3.60081 18.9656 0
      vertex 2.451 16.9741 4
    endloop
  endfacet
  facet normal 0.743145 -0.669131 0
    outer loop
      vertex 5.13956 20.6746 0
      vertex 5.13956 20.6746 4
      vertex 3.60081 18.9656 4
    endloop
  endfacet
  facet normal 0.743145 -0.669131 0
    outer loop
      vertex 3.60081 18.9656 0
      vertex 5.13956 20.6746 0
      vertex 3.60081 18.9656 4
    endloop
  endfacet
  facet normal 0.587785 -0.809017 0
    outer loop
      vertex 7 22.0263 0
      vertex 7 22.0263 4
      vertex 5.13956 20.6746 4
    endloop
  endfacet
  facet normal 0.587785 -0.809017 0
    outer loop
      vertex 5.13956 20.6746 0
      vertex 7 22.0263 0
      vertex 5.13956 20.6746 4
    endloop
  endfacet
  facet normal 0.406737 -0.913545 0
    outer loop
      vertex 9.10081 22.9616 0
      vertex 9.10081 22.9616 4
      vertex 7 22.0263 4
    endloop
  endfacet
  facet normal 0.406737 -0.913545 0
    outer loop
      vertex 7 22.0263 0
      vertex 9.10081 22.9616 0
      vertex 7 22.0263 4
    endloop
  endfacet
  facet normal 0.207912 -0.978148 0
    outer loop
      vertex 11.3502 23.4397 0
      vertex 11.3502 23.4397 4
      vertex 9.10081 22.9616 4
    endloop
  endfacet
  facet normal 0.207912 -0.978148 0
    outer loop
      vertex 9.10081 22.9616 0
      vertex 11.3502 23.4397 0
      vertex 9.10081 22.9616 4
    endloop
  endfacet
  facet normal 0 -1 0
    outer loop
      vertex 13.6498 23.4397 0
      vertex 13.6498 23.4397 4
      vertex 11.3502 23.4397 4
    endloop
  endfacet
  facet normal 0 -1 0
    outer loop
      vertex 11.3502 23.4397 0
      vertex 13.6498 23.4397 0
      vertex 11.3502 23.4397 4
    endloop
  endfacet
  facet normal -0.207912 -0.978148 0
    outer loop
      vertex 15.8992 22.9616 0
      vertex 15.8992 22.9616 4
      vertex 13.6498 23.4397 4
    endloop
  endfacet
  facet normal -0.207912 -0.978148 0
    outer loop
      vertex 13.6498 23.4397 0
      vertex 15.8992 22.9616 0
      vertex 13.6498 23.4397 4
    endloop
  endfacet
  facet normal -0.406737 -0.913545 0
    outer loop
      vertex 18 22.0263 0
      vertex 18 22.0263 4
      vertex 15.8992 22.9616 4
    endloop
  endfacet
  facet normal -0.406737 -0.913545 0
    outer loop
      vertex 15.8992 22.9616 0
      vertex 18 22.0263 0
      vertex 15.8992 22.9616 4
    endloop
  endfacet
  facet normal -0.587785 -0.809017 0
    outer loop
      vertex 19.8604 20.6746 0
      vertex 19.8604 20.6746 4
      vertex 18 22.0263 4
    endloop
  endfacet
  facet normal -0.587785 -0.809017 0
    outer loop
      vertex 18 22.0263 0
      vertex 19.8604 20.6746 0
      vertex 18 22.0263 4
    endloop
  endfacet
  facet normal -0.743145 -0.669131 0
    outer loop
      vertex 21.3992 18.9656 4
      vertex 19.8604 20.6746 4
      vertex 21.3992 18.9656 0
    endloop
  endfacet
  facet normal -0.743145 -0.669131 0
    outer loop
      vertex 21.3992 18.9656 0
      vertex 19.8604 20.6746 4
      vertex 19.8604 20.6746 0
    endloop
  endfacet
  facet normal -0.866025 -0.5 0
    outer loop
      vertex 22.549 16.9741 4
      vertex 21.3992 18.9656 4
      vertex 22.549 16.9741 0
    endloop
  endfacet
  facet normal -0.866025 -0.5 0
    outer loop
      vertex 22.549 16.9741 0
      vertex 21.3992 18.9656 4
      vertex 21.3992 18.9656 0
    endloop
  endfacet
  facet normal -0.951056 -0.309017 0
    outer loop
      vertex 23.2596 14.787 4
      vertex 22.549 16.9741 4
      vertex 23.2596 14.787 0
    endloop
  endfacet
  facet normal -0.951056 -0.309017 0
    outer loop
      vertex 23.2596 14.787 0
      vertex 22.549 16.9741 4
      vertex 22.549 16.9741 0
    endloop
  endfacet
  facet normal -0.994522 -0.104528 0
    outer loop
      vertex 23.5 12.5 4
      vertex 23.2596 14.787 4
      vertex 23.5 12.5 0
    endloop
  endfacet
  facet normal -0.994522 -0.104528 0
    outer loop
      vertex 23.5 12.5 0
      vertex 23.2596 14.787 4
      vertex 23.2596 14.787 0
    endloop
  endfacet
  facet normal -0.994522 0.104528 0
    outer loop
      vertex 23.5 12.5 4
      vertex 23.5 12.5 0
      vertex 23.2596 10.213 4
    endloop
  endfacet
  facet normal -0.994522 0.104528 0
    outer loop
      vertex 23.2596 10.213 4
      vertex 23.5 12.5 0
      vertex 23.2596 10.213 0
    endloop
  endfacet
  facet normal -0.951056 0.309017 0
    outer loop
      vertex 23.2596 10.213 4
      vertex 23.2596 10.213 0
      vertex 22.549 8.0259 4
    endloop
  endfacet
  facet normal -0.951056 0.309017 0
    outer loop
      vertex 22.549 8.0259 4
      vertex 23.2596 10.213 0
      vertex 22.549 8.0259 0
    endloop
  endfacet
  facet normal -0.866025 0.5 0
    outer loop
      vertex 22.549 8.0259 4
      vertex 22.549 8.0259 0
      vertex 21.3992 6.03436 4
    endloop
  endfacet
  facet normal -0.866025 0.5 0
    outer loop
      vertex 21.3992 6.03436 4
      vertex 22.549 8.0259 0
      vertex 21.3992 6.03436 0
    endloop
  endfacet
  facet normal -0.743145 0.669131 0
    outer loop
      vertex 21.3992 6.03436 4
      vertex 21.3992 6.03436 0
      vertex 19.8604 4.32541 4
    endloop
  endfacet
  facet normal -0.743145 0.669131 0
    outer loop
      vertex 19.8604 4.32541 4
      vertex 21.3992 6.03436 0
      vertex 19.8604 4.32541 0
    endloop
  endfacet
  facet normal -0.587785 0.809017 0
    outer loop
      vertex 19.8604 4.32541 4
      vertex 19.8604 4.32541 0
      vertex 18 2.97372 4
    endloop
  endfacet
  facet normal -0.587785 0.809017 0
    outer loop
      vertex 18 2.97372 4
      vertex 19.8604 4.32541 0
      vertex 18 2.97372 0
    endloop
  endfacet
  facet normal -0.406737 0.913545 0
    outer loop
      vertex 18 2.97372 4
      vertex 18 2.97372 0
      vertex 15.8992 2.03838 4
    endloop
  endfacet
  facet normal -0.406737 0.913545 0
    outer loop
      vertex 15.8992 2.03838 4
      vertex 18 2.97372 0
      vertex 15.8992 2.03838 0
    endloop
  endfacet
  facet normal -0.207912 0.978148 0
    outer loop
      vertex 15.8992 2.03838 4
      vertex 15.8992 2.03838 0
      vertex 13.6498 1.56026 4
    endloop
  endfacet
  facet normal -0.207912 0.978148 0
    outer loop
      vertex 13.6498 1.56026 4
      vertex 15.8992 2.03838 0
      vertex 13.6498 1.56026 0
    endloop
  endfacet
  facet normal 0 1 0
    outer loop
      vertex 13.6498 1.56026 4
      vertex 13.6498 1.56026 0
      vertex 11.3502 1.56026 4
    endloop
  endfacet
  facet normal 0 1 0
    outer loop
      vertex 11.3502 1.56026 4
      vertex 13.6498 1.56026 0
      vertex 11.3502 1.56026 0
    endloop
  endfacet
  facet normal 0.207912 0.978148 0
    outer loop
      vertex 11.3502 1.56026 4
      vertex 11.3502 1.56026 0
      vertex 9.10081 2.03838 4
    endloop
  endfacet
  facet normal 0.207912 0.978148 0
    outer loop
      vertex 9.10081 2.03838 4
      vertex 11.3502 1.56026 0
      vertex 9.10081 2.03838 0
    endloop
  endfacet
  facet normal 0.406737 0.913545 0
    outer loop
      vertex 9.10081 2.03838 4
      vertex 9.10081 2.03838 0
      vertex 7 2.97372 4
    endloop
  endfacet
  facet normal 0.406737 0.913545 0
    outer loop
      vertex 7 2.97372 4
      vertex 9.10081 2.03838 0
      vertex 7 2.97372 0
    endloop
  endfacet
  facet normal 0.587785 0.809017 0
    outer loop
      vertex 7 2.97372 4
      vertex 7 2.97372 0
      vertex 5.13956 4.32541 4
    endloop
  endfacet
  facet normal 0.587785 0.809017 0
    outer loop
      vertex 5.13956 4.32541 4
      vertex 7 2.97372 0
      vertex 5.13956 4.32541 0
    endloop
  endfacet
  facet normal 0.743145 0.669131 0
    outer loop
      vertex 3.60081 6.03436 4
      vertex 5.13956 4.32541 4
      vertex 5.13956 4.32541 0
    endloop
  endfacet
  facet normal 0.743145 0.669131 0
    outer loop
      vertex 3.60081 6.03436 0
      vertex 3.60081 6.03436 4
      vertex 5.13956 4.32541 0
    endloop
  endfacet
  facet normal 0.866025 0.5 0
    outer loop
      vertex 2.451 8.0259 4
      vertex 3.60081 6.03436 4
      vertex 3.60081 6.03436 0
    endloop
  endfacet
  facet normal 0.866025 0.5 0
    outer loop
      vertex 2.451 8.0259 0
      vertex 2.451 8.0259 4
      vertex 3.60081 6.03436 0
    endloop
  endfacet
  facet normal 0.951056 0.309017 0
    outer loop
      vertex 1.74038 10.213 4
      vertex 2.451 8.0259 4
      vertex 2.451 8.0259 0
    endloop
  endfacet
  facet normal 0.951056 0.309017 0
    outer loop
      vertex 1.74038 10.213 0
      vertex 1.74038 10.213 4
      vertex 2.451 8.0259 0
    endloop
  endfacet
endsolid OpenSCAD_Model
