solid OpenSCAD_Model
  facet normal -1 0 0
    outer loop
      vertex 0 0 0
      vertex 0 0 5
      vertex 0 10 0
    endloop
  endfacet
  facet normal -1 0 0
    outer loop
      vertex 0 10 0
      vertex 0 0 5
      vertex 0 10 5
    endloop
  endfacet
  facet normal 0 -1 0
    outer loop
      vertex 0 0 5
      vertex 0 0 0
      vertex 10 0 0
    endloop
  endfacet
  facet normal 0 -1 0
    outer loop
      vertex 10 0 5
      vertex 0 0 5
      vertex 10 0 0
    endloop
  endfacet
  facet normal 0 0 -1
    outer loop
      vertex 0 0 0
      vertex 0 10 0
      vertex 10 0 0
    endloop
  endfacet
  facet normal 0 0 -1
    outer loop
      vertex 10 0 0
      vertex 0 10 0
      vertex 10 10 0
    endloop
  endfacet
  facet normal 0 1 0
    outer loop
      vertex 0 10 0
      vertex 0 10 5
      vertex 10 10 0
    endloop
  endfacet
  facet normal 0 1 0
    outer loop
      vertex 10 10 0
      vertex 0 10 5
      vertex 10 10 5
    endloop
  endfacet
  facet normal 0 0 1
    outer loop
      vertex 0.6 0.4 5
      vertex 0 0 5
      vertex 10 0 5
    endloop
  endfacet
  facet normal 0 0 1
    outer loop
      vertex 9.4 0.4 5
      vertex 0.6 0.4 5
      vertex 10 0 5
    endloop
  endfacet
  facet normal 0 0 1
    outer loop
      vertex 0 10 5
      vertex 0 0 5
      vertex 0.6 0.4 5
    endloop
  endfacet
  facet normal 0 0 1
    outer loop
      vertex 10 10 5
      vertex 0 10 5
      vertex 0.6 9.6 5
    endloop
  endfacet
  facet normal 0 0 1
    outer loop
      vertex 10 10 5
      vertex 9.4 9.6 5
      vertex 10 0 5
    endloop
  endfacet
  facet normal 0 0 1
    outer loop
      vertex 10 10 5
      vertex 0.6 9.6 5
      vertex 9.4 9.6 5
    endloop
  endfacet
  facet normal 0 0 1
    outer loop
      vertex 9.4 9.6 5
      vertex 9.4 0.4 5
      vertex 10 0 5
    endloop
  endfacet
  facet normal 0 0 1
    outer loop
      vertex 0.6 0.4 5
      vertex 0.6 9.6 5
      vertex 0 10 5
    endloop
  endfacet
  facet normal 1 0 0
    outer loop
      vertex 10 0 5
      vertex 10 0 0
      vertex 10 10 0
    endloop
  endfacet
  facet normal 1 0 0
    outer loop
      vertex 10 10 5
      vertex 10 0 5
      vertex 10 10 0
    endloop
  endfacet
  facet normal 1 0 0
    outer loop
      vertex 0.6 9.6 0.3
      vertex 0.6 9.6 5
      vertex 0.6 0.4 5
    endloop
  endfacet
  facet normal 1 0 0
    outer loop
      vertex 0.6 0.4 0.3
      vertex 0.6 9.6 0.3
      vertex 0.6 0.4 5
    endloop
  endfacet
  facet normal 0 1 0
    outer loop
      vertex 9.4 0.4 5
      vertex 9.4 0.4 0.3
      vertex 0.6 0.4 5
    endloop
  endfacet
  facet normal 0 1 0
    outer loop
      vertex 0.6 0.4 5
      vertex 9.4 0.4 0.3
      vertex 0.6 0.4 0.3
    endloop
  endfacet
  facet normal -1 0 0
    outer loop
      vertex 9.4 9.6 5
      vertex 9.4 9.6 0.3
      vertex 9.4 0.4 5
    endloop
  endfacet
  facet normal -1 0 0
    outer loop
      vertex 9.4 0.4 5
      vertex 9.4 9.6 0.3
      vertex 9.4 0.4 0.3
    endloop
  endfacet
  facet normal 0 -1 0
    outer loop
      vertex 9.4 9.6 0.3
      vertex 9.4 9.6 5
      vertex 0.6 9.6 5
    endloop
  endfacet
  facet normal 0 -1 0
    outer loop
      vertex 0.6 9.6 0.3
      vertex 9.4 9.6 0.3
      vertex 0.6 9.6 5
    endloop
  endfacet
  facet normal 0 0 1
    outer loop
      vertex 9.4 0.4 0.3
      vertex 9.4 9.6 0.3
      vertex 0.6 9.6 0.3
    endloop
  endfacet
  facet normal 0 0 1
    outer loop
      vertex 0.6 0.4 0.3
      vertex 9.4 0.4 0.3
      vertex 0.6 9.6 0.3
    endloop
  endfacet
endsolid OpenSCAD_Model
