solid OpenSCAD_Model
  facet normal -0.5 0.866025 0
    outer loop
      vertex -23.6885 -6.74834 0
      vertex -23.6885 -6.74834 2
      vertex -13.8856 -1.08864 0
    endloop
  endfacet
  facet normal -0.5 0.866025 0
    outer loop
      vertex -13.8856 -1.08864 0
      vertex -23.6885 -6.74834 2
      vertex -18.3638 -3.67416 2
    endloop
  endfacet
  facet normal -0.5 0.866025 0
    outer loop
      vertex -13.8856 -1.08864 0
      vertex -18.3638 -3.67416 2
      vertex -18.3638 -3.67416 7
    endloop
  endfacet
  facet normal -0.5 0.866025 0
    outer loop
      vertex -13.8856 -1.08864 0
      vertex -18.3638 -3.67416 7
      vertex -13.8856 -1.08864 7
    endloop
  endfacet
  facet normal -0.951057 -0.309017 0
    outer loop
      vertex -23.6885 -6.74834 0
      vertex -22.6103 -10.0667 0
      vertex -23.6885 -6.74834 2
    endloop
  endfacet
  facet normal -0.951057 -0.309017 0
    outer loop
      vertex -23.6885 -6.74834 2
      vertex -22.6103 -10.0667 0
      vertex -22.6103 -10.0667 2
    endloop
  endfacet
  facet normal 0 0 -1
    outer loop
      vertex -23.6885 -6.74834 0
      vertex -13.8856 -1.08864 0
      vertex -22.6103 -10.0667 0
    endloop
  endfacet
  facet normal 0 0 -1
    outer loop
      vertex -12.375 21.4341 0
      vertex -13.8856 -1.08864 0
      vertex -14 20.2535 0
    endloop
  endfacet
  facet normal 0 0 -1
    outer loop
      vertex -13.8856 -1.08864 0
      vertex -14 0 0
      vertex -14 20.2535 0
    endloop
  endfacet
  facet normal 0 0 -1
    outer loop
      vertex -7.64817 23.5386 0
      vertex -13.8856 -1.08864 0
      vertex -12.375 21.4341 0
    endloop
  endfacet
  facet normal 0 0 -1
    outer loop
      vertex -2.58708 24.6144 0
      vertex -13.8856 -1.08864 0
      vertex -7.64817 23.5386 0
    endloop
  endfacet
  facet normal 0 0 -1
    outer loop
      vertex 2.58708 24.6144 0
      vertex -13.8856 -1.08864 0
      vertex -2.58708 24.6144 0
    endloop
  endfacet
  facet normal 0 0 -1
    outer loop
      vertex -8.89919 6.46564 0
      vertex -13.8856 -1.08864 0
      vertex 2.58708 24.6144 0
    endloop
  endfacet
  facet normal 0 0 -1
    outer loop
      vertex -10.7596 -2.28703 0
      vertex -22.6103 -10.0667 0
      vertex -11 0 0
    endloop
  endfacet
  facet normal 0 0 -1
    outer loop
      vertex 3.39919 10.4616 0
      vertex 6 12.5696 0
      vertex 7 12.1244 0
    endloop
  endfacet
  facet normal 0 0 -1
    outer loop
      vertex 10.7596 -2.28703 0
      vertex 24.54 1.99761 0
      vertex 24.75 0 0
    endloop
  endfacet
  facet normal 0 0 -1
    outer loop
      vertex 8.89919 -6.46564 0
      vertex 24.75 0 0
      vertex 24.2092 -5.14581 0
    endloop
  endfacet
  facet normal 0 0 -1
    outer loop
      vertex 5.5 -9.52628 0
      vertex 24.2092 -5.14581 0
      vertex 22.6103 -10.0667 0
    endloop
  endfacet
  facet normal 0 0 -1
    outer loop
      vertex 7.88558 -11.4809 0
      vertex 22.6103 -10.0667 0
      vertex 20.0232 -14.5477 0
    endloop
  endfacet
  facet normal 0 0 -1
    outer loop
      vertex 3.39919 -10.4616 0
      vertex 22.6103 -10.0667 0
      vertex 7.88558 -11.4809 0
    endloop
  endfacet
  facet normal 0 0 -1
    outer loop
      vertex -10.54 -22.2511 0
      vertex -22.6103 -10.0667 0
      vertex 7 -12.1244 0
    endloop
  endfacet
  facet normal 0 0 -1
    outer loop
      vertex -22.6103 -10.0667 0
      vertex 7.88558 -11.4809 0
      vertex 7 -12.1244 0
    endloop
  endfacet
  facet normal 0 0 -1
    outer loop
      vertex -5.5 9.52628 0
      vertex 6 23.889 0
      vertex -3.39919 10.4616 0
    endloop
  endfacet
  facet normal 0 0 -1
    outer loop
      vertex -11 0 0
      vertex -13.8856 -1.08864 0
      vertex -10.7596 2.28703 0
    endloop
  endfacet
  facet normal 0 0 -1
    outer loop
      vertex -22.6103 -10.0667 0
      vertex -10.54 -22.2511 0
      vertex -12.375 -21.4341 0
    endloop
  endfacet
  facet normal 0 0 -1
    outer loop
      vertex -22.6103 -10.0667 0
      vertex -12.375 -21.4341 0
      vertex -16.561 -18.3928 0
    endloop
  endfacet
  facet normal 0 0 -1
    outer loop
      vertex -22.6103 -10.0667 0
      vertex -16.561 -18.3928 0
      vertex -20.0232 -14.5477 0
    endloop
  endfacet
  facet normal 0 0 -1
    outer loop
      vertex -22.6103 -10.0667 0
      vertex -13.8856 -1.08864 0
      vertex -11 0 0
    endloop
  endfacet
  facet normal 0 0 -1
    outer loop
      vertex 8.89919 6.46564 0
      vertex 7 12.1244 0
      vertex 10.049 4.4741 0
    endloop
  endfacet
  facet normal 0 0 -1
    outer loop
      vertex -7.36044 -8.17459 0
      vertex -22.6103 -10.0667 0
      vertex -8.89919 -6.46564 0
    endloop
  endfacet
  facet normal 0 0 -1
    outer loop
      vertex 10.7596 2.28703 0
      vertex 24.54 1.99761 0
      vertex 11 0 0
    endloop
  endfacet
  facet normal 0 0 -1
    outer loop
      vertex -10.7596 -2.28703 0
      vertex -10.049 -4.4741 0
      vertex -22.6103 -10.0667 0
    endloop
  endfacet
  facet normal 0 0 -1
    outer loop
      vertex -10.049 -4.4741 0
      vertex -8.89919 -6.46564 0
      vertex -22.6103 -10.0667 0
    endloop
  endfacet
  facet normal 0 0 -1
    outer loop
      vertex -5.5 -9.52628 0
      vertex -22.6103 -10.0667 0
      vertex -7.36044 -8.17459 0
    endloop
  endfacet
  facet normal 0 0 -1
    outer loop
      vertex -3.39919 -10.4616 0
      vertex -22.6103 -10.0667 0
      vertex -5.5 -9.52628 0
    endloop
  endfacet
  facet normal 0 0 -1
    outer loop
      vertex 3.39919 -10.4616 0
      vertex 7.88558 -11.4809 0
      vertex 1.14981 -10.9397 0
    endloop
  endfacet
  facet normal 0 0 -1
    outer loop
      vertex -22.6103 -10.0667 0
      vertex -3.39919 -10.4616 0
      vertex -1.14981 -10.9397 0
    endloop
  endfacet
  facet normal 0 0 -1
    outer loop
      vertex -22.6103 -10.0667 0
      vertex -1.14981 -10.9397 0
      vertex 7.88558 -11.4809 0
    endloop
  endfacet
  facet normal 0 0 -1
    outer loop
      vertex -1.14981 -10.9397 0
      vertex 1.14981 -10.9397 0
      vertex 7.88558 -11.4809 0
    endloop
  endfacet
  facet normal 0 0 -1
    outer loop
      vertex 5.5 -9.52628 0
      vertex 22.6103 -10.0667 0
      vertex 3.39919 -10.4616 0
    endloop
  endfacet
  facet normal 0 0 -1
    outer loop
      vertex 7.36044 -8.17459 0
      vertex 24.2092 -5.14581 0
      vertex 5.5 -9.52628 0
    endloop
  endfacet
  facet normal 0 0 -1
    outer loop
      vertex 8.89919 -6.46564 0
      vertex 24.2092 -5.14581 0
      vertex 7.36044 -8.17459 0
    endloop
  endfacet
  facet normal 0 0 -1
    outer loop
      vertex 10.049 -4.4741 0
      vertex 24.75 0 0
      vertex 8.89919 -6.46564 0
    endloop
  endfacet
  facet normal 0 0 -1
    outer loop
      vertex 10.7596 -2.28703 0
      vertex 24.75 0 0
      vertex 10.049 -4.4741 0
    endloop
  endfacet
  facet normal 0 0 -1
    outer loop
      vertex 10.049 4.4741 0
      vertex 24.54 1.99761 0
      vertex 10.7596 2.28703 0
    endloop
  endfacet
  facet normal 0 0 -1
    outer loop
      vertex 7 12.1244 0
      vertex 24.54 1.99761 0
      vertex 10.049 4.4741 0
    endloop
  endfacet
  facet normal 0 0 -1
    outer loop
      vertex 3.39919 10.4616 0
      vertex 7 12.1244 0
      vertex 5.5 9.52628 0
    endloop
  endfacet
  facet normal 0 0 -1
    outer loop
      vertex 7 12.1244 0
      vertex 8.89919 6.46564 0
      vertex 7.36044 8.17459 0
    endloop
  endfacet
  facet normal 0 0 -1
    outer loop
      vertex 7 12.1244 0
      vertex 7.36044 8.17459 0
      vertex 5.5 9.52628 0
    endloop
  endfacet
  facet normal 0 0 -1
    outer loop
      vertex 11 0 0
      vertex 24.54 1.99761 0
      vertex 10.7596 -2.28703 0
    endloop
  endfacet
  facet normal 0 0 -1
    outer loop
      vertex 6 12.5696 0
      vertex 1.14981 10.9397 0
      vertex 6 23.889 0
    endloop
  endfacet
  facet normal 0 0 -1
    outer loop
      vertex 1.14981 10.9397 0
      vertex 6 12.5696 0
      vertex 3.39919 10.4616 0
    endloop
  endfacet
  facet normal 0 0 -1
    outer loop
      vertex 1.14981 10.9397 0
      vertex -1.14981 10.9397 0
      vertex 6 23.889 0
    endloop
  endfacet
  facet normal 0 0 -1
    outer loop
      vertex -1.14981 10.9397 0
      vertex -3.39919 10.4616 0
      vertex 6 23.889 0
    endloop
  endfacet
  facet normal 0 0 -1
    outer loop
      vertex -10.7596 2.28703 0
      vertex -13.8856 -1.08864 0
      vertex -10.049 4.4741 0
    endloop
  endfacet
  facet normal 0 0 -1
    outer loop
      vertex 6 23.889 0
      vertex -5.5 9.52628 0
      vertex 2.58708 24.6144 0
    endloop
  endfacet
  facet normal 0 0 -1
    outer loop
      vertex -5.5 9.52628 0
      vertex -7.36044 8.17459 0
      vertex 2.58708 24.6144 0
    endloop
  endfacet
  facet normal 0 0 -1
    outer loop
      vertex -10.049 4.4741 0
      vertex -13.8856 -1.08864 0
      vertex -8.89919 6.46564 0
    endloop
  endfacet
  facet normal 0 0 -1
    outer loop
      vertex -7.36044 8.17459 0
      vertex -8.89919 6.46564 0
      vertex 2.58708 24.6144 0
    endloop
  endfacet
  facet normal 0 0 -1
    outer loop
      vertex 7.88558 -11.4809 0
      vertex 20.0232 -14.5477 0
      vertex 17.6885 -17.1406 0
    endloop
  endfacet
  facet normal -0.994522 -0.104529 0
    outer loop
      vertex -14 0 0
      vertex -13.8856 -1.08864 0
      vertex -14 0 7
    endloop
  endfacet
  facet normal -0.994522 -0.104529 0
    outer loop
      vertex -14 0 7
      vertex -13.8856 -1.08864 0
      vertex -13.8856 -1.08864 7
    endloop
  endfacet
  facet normal 0 0 1
    outer loop
      vertex -13.8856 -1.08864 7
      vertex -18.3638 -3.67416 7
      vertex -18.3403 -3.89834 7
    endloop
  endfacet
  facet normal 0 0 1
    outer loop
      vertex -15.1691 -11.021 7
      vertex -13.8856 -1.08864 7
      vertex -17.129 -7.62631 7
    endloop
  endfacet
  facet normal 0 0 1
    outer loop
      vertex -17.129 -7.62631 7
      vertex -13.8856 -1.08864 7
      vertex -18.3403 -3.89834 7
    endloop
  endfacet
  facet normal 0 0 1
    outer loop
      vertex -12.5462 -13.934 7
      vertex -13.8856 -1.08864 7
      vertex -15.1691 -11.021 7
    endloop
  endfacet
  facet normal 0 0 1
    outer loop
      vertex -9.375 -16.238 7
      vertex -13.8856 -1.08864 7
      vertex -12.5462 -13.934 7
    endloop
  endfacet
  facet normal 0 0 1
    outer loop
      vertex -5.79407 -17.8323 7
      vertex -13.8856 -1.08864 7
      vertex -9.375 -16.238 7
    endloop
  endfacet
  facet normal 0 0 1
    outer loop
      vertex -3.66888 -18.284 7
      vertex -13.8856 -1.08864 7
      vertex -5.79407 -17.8323 7
    endloop
  endfacet
  facet normal 0 0 1
    outer loop
      vertex -7.36044 -8.17459 7
      vertex -13.8856 -1.08864 7
      vertex -3.66888 -18.284 7
    endloop
  endfacet
  facet normal 0 0 1
    outer loop
      vertex 10.7596 -2.28703 7
      vertex 10.049 -4.4741 7
      vertex 18.3403 -3.89834 7
    endloop
  endfacet
  facet normal 0 0 1
    outer loop
      vertex 12.5462 -13.934 7
      vertex 7.88558 -11.4809 7
      vertex 12.3638 -14.0665 7
    endloop
  endfacet
  facet normal 0 0 1
    outer loop
      vertex 15.1691 -11.021 7
      vertex 7.88558 -11.4809 7
      vertex 12.5462 -13.934 7
    endloop
  endfacet
  facet normal 0 0 1
    outer loop
      vertex -11 0 7
      vertex -14 0 7
      vertex -13.8856 -1.08864 7
    endloop
  endfacet
  facet normal 0 0 1
    outer loop
      vertex 5.5 -9.52628 7
      vertex 3.39919 -10.4616 7
      vertex 7 -12.1244 7
    endloop
  endfacet
  facet normal 0 0 1
    outer loop
      vertex -14 12.3194 7
      vertex -9.375 16.238 7
      vertex -12.5462 13.934 7
    endloop
  endfacet
  facet normal 0 0 1
    outer loop
      vertex -14 12.3194 7
      vertex -5.79407 17.8323 7
      vertex -9.375 16.238 7
    endloop
  endfacet
  facet normal 0 0 1
    outer loop
      vertex -14 12.3194 7
      vertex 1.95991 18.6473 7
      vertex -1.95991 18.6473 7
    endloop
  endfacet
  facet normal 0 0 1
    outer loop
      vertex -10.049 -4.4741 7
      vertex -10.7596 -2.28703 7
      vertex -13.8856 -1.08864 7
    endloop
  endfacet
  facet normal 0 0 1
    outer loop
      vertex 7.36044 -8.17459 7
      vertex 5.5 -9.52628 7
      vertex 15.1691 -11.021 7
    endloop
  endfacet
  facet normal 0 0 1
    outer loop
      vertex 1.14981 10.9397 7
      vertex 3.39919 10.4616 7
      vertex 6 12.5696 7
    endloop
  endfacet
  facet normal 0 0 1
    outer loop
      vertex -8.89919 -6.46564 7
      vertex -10.049 -4.4741 7
      vertex -13.8856 -1.08864 7
    endloop
  endfacet
  facet normal 0 0 1
    outer loop
      vertex -7.36044 8.17459 7
      vertex -5.5 9.52628 7
      vertex 1.95991 18.6473 7
    endloop
  endfacet
  facet normal 0 0 1
    outer loop
      vertex 3.39919 10.4616 7
      vertex 5.5 9.52628 7
      vertex 7 12.1244 7
    endloop
  endfacet
  facet normal 0 0 1
    outer loop
      vertex 1.95991 18.6473 7
      vertex -8.89919 6.46564 7
      vertex -7.36044 8.17459 7
    endloop
  endfacet
  facet normal 0 0 1
    outer loop
      vertex 1.95991 18.6473 7
      vertex -5.5 9.52628 7
      vertex 5.79407 17.8323 7
    endloop
  endfacet
  facet normal 0 0 1
    outer loop
      vertex -5.5 9.52628 7
      vertex -3.39919 10.4616 7
      vertex 5.79407 17.8323 7
    endloop
  endfacet
  facet normal 0 0 1
    outer loop
      vertex 6 17.7406 7
      vertex -1.14981 10.9397 7
      vertex 6 12.5696 7
    endloop
  endfacet
  facet normal 0 0 1
    outer loop
      vertex -1.14981 10.9397 7
      vertex 1.14981 10.9397 7
      vertex 6 12.5696 7
    endloop
  endfacet
  facet normal 0 0 1
    outer loop
      vertex 6 12.5696 7
      vertex 3.39919 10.4616 7
      vertex 7 12.1244 7
    endloop
  endfacet
  facet normal 0 0 1
    outer loop
      vertex -14 12.3194 7
      vertex -1.95991 18.6473 7
      vertex -5.79407 17.8323 7
    endloop
  endfacet
  facet normal 0 0 1
    outer loop
      vertex 7 12.1244 7
      vertex 5.5 9.52628 7
      vertex 17.6689 5.96468 7
    endloop
  endfacet
  facet normal 0 0 1
    outer loop
      vertex 5.5 9.52628 7
      vertex 7.36044 8.17459 7
      vertex 17.6689 5.96468 7
    endloop
  endfacet
  facet normal 0 0 1
    outer loop
      vertex 7.36044 8.17459 7
      vertex 8.89919 6.46564 7
      vertex 17.6689 5.96468 7
    endloop
  endfacet
  facet normal 0 0 1
    outer loop
      vertex 8.89919 6.46564 7
      vertex 10.049 4.4741 7
      vertex 17.6689 5.96468 7
    endloop
  endfacet
  facet normal 0 0 1
    outer loop
      vertex 18.3403 3.89834 7
      vertex 10.7596 2.28703 7
      vertex 18.75 0 7
    endloop
  endfacet
  facet normal 0 0 1
    outer loop
      vertex 10.049 4.4741 7
      vertex 10.7596 2.28703 7
      vertex 18.3403 3.89834 7
    endloop
  endfacet
  facet normal 0 0 1
    outer loop
      vertex 10.7596 2.28703 7
      vertex 11 0 7
      vertex 18.75 0 7
    endloop
  endfacet
  facet normal 0 0 1
    outer loop
      vertex 10.049 4.4741 7
      vertex 18.3403 3.89834 7
      vertex 17.6689 5.96468 7
    endloop
  endfacet
  facet normal 0 0 1
    outer loop
      vertex 18.75 0 7
      vertex 10.7596 -2.28703 7
      vertex 18.3403 -3.89834 7
    endloop
  endfacet
  facet normal 0 0 1
    outer loop
      vertex -11 0 7
      vertex -10.7596 2.28703 7
      vertex -14 0 7
    endloop
  endfacet
  facet normal 0 0 1
    outer loop
      vertex 18.3403 -3.89834 7
      vertex 10.049 -4.4741 7
      vertex 17.129 -7.62631 7
    endloop
  endfacet
  facet normal 0 0 1
    outer loop
      vertex 17.129 -7.62631 7
      vertex 8.89919 -6.46564 7
      vertex 15.1691 -11.021 7
    endloop
  endfacet
  facet normal 0 0 1
    outer loop
      vertex 8.89919 -6.46564 7
      vertex 7.36044 -8.17459 7
      vertex 15.1691 -11.021 7
    endloop
  endfacet
  facet normal 0 0 1
    outer loop
      vertex 15.1691 -11.021 7
      vertex 5.5 -9.52628 7
      vertex 7.88558 -11.4809 7
    endloop
  endfacet
  facet normal 0 0 1
    outer loop
      vertex 7 -12.1244 7
      vertex 3.39919 -10.4616 7
      vertex -3.66888 -18.284 7
    endloop
  endfacet
  facet normal 0 0 1
    outer loop
      vertex 11 0 7
      vertex 10.7596 -2.28703 7
      vertex 18.75 0 7
    endloop
  endfacet
  facet normal 0 0 1
    outer loop
      vertex 3.39919 -10.4616 7
      vertex 1.14981 -10.9397 7
      vertex -3.66888 -18.284 7
    endloop
  endfacet
  facet normal 0 0 1
    outer loop
      vertex 1.14981 -10.9397 7
      vertex -1.14981 -10.9397 7
      vertex -3.66888 -18.284 7
    endloop
  endfacet
  facet normal 0 0 1
    outer loop
      vertex 10.049 -4.4741 7
      vertex 8.89919 -6.46564 7
      vertex 17.129 -7.62631 7
    endloop
  endfacet
  facet normal 0 0 1
    outer loop
      vertex -1.14981 -10.9397 7
      vertex -3.39919 -10.4616 7
      vertex -3.66888 -18.284 7
    endloop
  endfacet
  facet normal 0 0 1
    outer loop
      vertex -3.39919 -10.4616 7
      vertex -5.5 -9.52628 7
      vertex -3.66888 -18.284 7
    endloop
  endfacet
  facet normal 0 0 1
    outer loop
      vertex -5.5 -9.52628 7
      vertex -7.36044 -8.17459 7
      vertex -3.66888 -18.284 7
    endloop
  endfacet
  facet normal 0 0 1
    outer loop
      vertex -8.89919 -6.46564 7
      vertex -13.8856 -1.08864 7
      vertex -7.36044 -8.17459 7
    endloop
  endfacet
  facet normal 0 0 1
    outer loop
      vertex -10.7596 2.28703 7
      vertex -10.049 4.4741 7
      vertex -14 0 7
    endloop
  endfacet
  facet normal 0 0 1
    outer loop
      vertex -3.39919 10.4616 7
      vertex 6 17.7406 7
      vertex 5.79407 17.8323 7
    endloop
  endfacet
  facet normal 0 0 1
    outer loop
      vertex -3.39919 10.4616 7
      vertex -1.14981 10.9397 7
      vertex 6 17.7406 7
    endloop
  endfacet
  facet normal 0 0 1
    outer loop
      vertex -14 12.3194 7
      vertex -8.89919 6.46564 7
      vertex 1.95991 18.6473 7
    endloop
  endfacet
  facet normal 0 0 1
    outer loop
      vertex -14 12.3194 7
      vertex -10.049 4.4741 7
      vertex -8.89919 6.46564 7
    endloop
  endfacet
  facet normal 0 0 1
    outer loop
      vertex -14 12.3194 7
      vertex -14 0 7
      vertex -10.049 4.4741 7
    endloop
  endfacet
  facet normal 0 0 1
    outer loop
      vertex 5.5 -9.52628 7
      vertex 7 -12.1244 7
      vertex 7.88558 -11.4809 7
    endloop
  endfacet
  facet normal 0 0 1
    outer loop
      vertex -10.7596 -2.28703 7
      vertex -11 0 7
      vertex -13.8856 -1.08864 7
    endloop
  endfacet
  facet normal -0.994522 -0.104528 0
    outer loop
      vertex -18.3638 -3.67416 2
      vertex -18.3403 -3.89834 2
      vertex -18.3638 -3.67416 7
    endloop
  endfacet
  facet normal -0.994522 -0.104528 0
    outer loop
      vertex -18.3638 -3.67416 7
      vertex -18.3403 -3.89834 2
      vertex -18.3403 -3.89834 7
    endloop
  endfacet
  facet normal 0 0 1
    outer loop
      vertex -18.3638 -3.67416 2
      vertex -23.6885 -6.74834 2
      vertex -22.6103 -10.0667 2
    endloop
  endfacet
  facet normal 0 0 1
    outer loop
      vertex -18.3403 -3.89834 2
      vertex -18.3638 -3.67416 2
      vertex -20.0232 -14.5477 2
    endloop
  endfacet
  facet normal 0 0 1
    outer loop
      vertex -20.0232 -14.5477 2
      vertex -18.3638 -3.67416 2
      vertex -22.6103 -10.0667 2
    endloop
  endfacet
  facet normal 0 0 1
    outer loop
      vertex -17.129 -7.62631 2
      vertex -18.3403 -3.89834 2
      vertex -16.561 -18.3928 2
    endloop
  endfacet
  facet normal 0 0 1
    outer loop
      vertex -3.66888 -18.284 2
      vertex -5.79407 -17.8323 2
      vertex -10.54 -22.2511 2
    endloop
  endfacet
  facet normal 0 0 1
    outer loop
      vertex -5.79407 -17.8323 2
      vertex -9.375 -16.238 2
      vertex -10.54 -22.2511 2
    endloop
  endfacet
  facet normal 0 0 1
    outer loop
      vertex -9.375 -16.238 2
      vertex -12.5462 -13.934 2
      vertex -10.54 -22.2511 2
    endloop
  endfacet
  facet normal 0 0 1
    outer loop
      vertex -12.5462 -13.934 2
      vertex -15.1691 -11.021 2
      vertex -10.54 -22.2511 2
    endloop
  endfacet
  facet normal 0 0 1
    outer loop
      vertex -12.375 -21.4341 2
      vertex -17.129 -7.62631 2
      vertex -16.561 -18.3928 2
    endloop
  endfacet
  facet normal 0 0 1
    outer loop
      vertex -16.561 -18.3928 2
      vertex -18.3403 -3.89834 2
      vertex -20.0232 -14.5477 2
    endloop
  endfacet
  facet normal 0 0 1
    outer loop
      vertex -15.1691 -11.021 2
      vertex -12.375 -21.4341 2
      vertex -10.54 -22.2511 2
    endloop
  endfacet
  facet normal 0 0 1
    outer loop
      vertex -15.1691 -11.021 2
      vertex -17.129 -7.62631 2
      vertex -12.375 -21.4341 2
    endloop
  endfacet
  facet normal -0.866025 -0.5 0
    outer loop
      vertex -22.6103 -10.0667 0
      vertex -20.0232 -14.5477 0
      vertex -22.6103 -10.0667 2
    endloop
  endfacet
  facet normal -0.866025 -0.5 0
    outer loop
      vertex -22.6103 -10.0667 2
      vertex -20.0232 -14.5477 0
      vertex -20.0232 -14.5477 2
    endloop
  endfacet
  facet normal -0.743145 -0.669131 0
    outer loop
      vertex -20.0232 -14.5477 0
      vertex -16.561 -18.3928 0
      vertex -20.0232 -14.5477 2
    endloop
  endfacet
  facet normal -0.743145 -0.669131 0
    outer loop
      vertex -20.0232 -14.5477 2
      vertex -16.561 -18.3928 0
      vertex -16.561 -18.3928 2
    endloop
  endfacet
  facet normal -0.587785 -0.809017 0
    outer loop
      vertex -16.561 -18.3928 2
      vertex -16.561 -18.3928 0
      vertex -12.375 -21.4341 0
    endloop
  endfacet
  facet normal -0.587785 -0.809017 0
    outer loop
      vertex -12.375 -21.4341 2
      vertex -16.561 -18.3928 2
      vertex -12.375 -21.4341 0
    endloop
  endfacet
  facet normal -0.406737 -0.913545 0
    outer loop
      vertex -12.375 -21.4341 2
      vertex -12.375 -21.4341 0
      vertex -10.54 -22.2511 0
    endloop
  endfacet
  facet normal -0.406737 -0.913545 0
    outer loop
      vertex -10.54 -22.2511 2
      vertex -12.375 -21.4341 2
      vertex -10.54 -22.2511 0
    endloop
  endfacet
  facet normal 0.5 -0.866025 0
    outer loop
      vertex -10.54 -22.2511 2
      vertex -10.54 -22.2511 0
      vertex 7 -12.1244 0
    endloop
  endfacet
  facet normal 0.5 -0.866025 0
    outer loop
      vertex -3.66888 -18.284 2
      vertex -10.54 -22.2511 2
      vertex 7 -12.1244 0
    endloop
  endfacet
  facet normal 0.5 -0.866025 0
    outer loop
      vertex 7 -12.1244 7
      vertex -3.66888 -18.284 2
      vertex 7 -12.1244 0
    endloop
  endfacet
  facet normal 0.5 -0.866025 0
    outer loop
      vertex -3.66888 -18.284 7
      vertex -3.66888 -18.284 2
      vertex 7 -12.1244 7
    endloop
  endfacet
  facet normal 0.587785 -0.809017 0
    outer loop
      vertex 7 -12.1244 7
      vertex 7 -12.1244 0
      vertex 7.88558 -11.4809 0
    endloop
  endfacet
  facet normal 0.587785 -0.809017 0
    outer loop
      vertex 7.88558 -11.4809 7
      vertex 7 -12.1244 7
      vertex 7.88558 -11.4809 0
    endloop
  endfacet
  facet normal -0.5 -0.866025 0
    outer loop
      vertex 12.3638 -14.0665 2
      vertex 7.88558 -11.4809 0
      vertex 17.6885 -17.1406 0
    endloop
  endfacet
  facet normal -0.5 -0.866025 0
    outer loop
      vertex 12.3638 -14.0665 2
      vertex 12.3638 -14.0665 7
      vertex 7.88558 -11.4809 7
    endloop
  endfacet
  facet normal -0.5 -0.866025 0
    outer loop
      vertex 7.88558 -11.4809 7
      vertex 7.88558 -11.4809 0
      vertex 12.3638 -14.0665 2
    endloop
  endfacet
  facet normal -0.5 -0.866025 0
    outer loop
      vertex 17.6885 -17.1406 2
      vertex 12.3638 -14.0665 2
      vertex 17.6885 -17.1406 0
    endloop
  endfacet
  facet normal 0.743145 -0.669131 0
    outer loop
      vertex 17.6885 -17.1406 2
      vertex 17.6885 -17.1406 0
      vertex 20.0232 -14.5477 0
    endloop
  endfacet
  facet normal 0.743145 -0.669131 0
    outer loop
      vertex 20.0232 -14.5477 2
      vertex 17.6885 -17.1406 2
      vertex 20.0232 -14.5477 0
    endloop
  endfacet
  facet normal 0.866025 -0.5 0
    outer loop
      vertex 20.0232 -14.5477 2
      vertex 20.0232 -14.5477 0
      vertex 22.6103 -10.0667 0
    endloop
  endfacet
  facet normal 0.866025 -0.5 0
    outer loop
      vertex 22.6103 -10.0667 2
      vertex 20.0232 -14.5477 2
      vertex 22.6103 -10.0667 0
    endloop
  endfacet
  facet normal 0.951057 -0.309017 0
    outer loop
      vertex 22.6103 -10.0667 2
      vertex 22.6103 -10.0667 0
      vertex 24.2092 -5.14581 0
    endloop
  endfacet
  facet normal 0.951057 -0.309017 0
    outer loop
      vertex 24.2092 -5.14581 2
      vertex 22.6103 -10.0667 2
      vertex 24.2092 -5.14581 0
    endloop
  endfacet
  facet normal 0.994522 -0.104528 0
    outer loop
      vertex 24.2092 -5.14581 2
      vertex 24.2092 -5.14581 0
      vertex 24.75 0 0
    endloop
  endfacet
  facet normal 0.994522 -0.104528 0
    outer loop
      vertex 24.75 0 2
      vertex 24.2092 -5.14581 2
      vertex 24.75 0 0
    endloop
  endfacet
  facet normal 0.994522 0.104528 0
    outer loop
      vertex 24.75 0 0
      vertex 24.54 1.99761 0
      vertex 24.54 1.99761 2
    endloop
  endfacet
  facet normal 0.994522 0.104528 0
    outer loop
      vertex 24.75 0 2
      vertex 24.75 0 0
      vertex 24.54 1.99761 2
    endloop
  endfacet
  facet normal 0.5 0.866025 0
    outer loop
      vertex 24.54 1.99761 2
      vertex 24.54 1.99761 0
      vertex 17.6689 5.96468 2
    endloop
  endfacet
  facet normal 0.5 0.866025 0
    outer loop
      vertex 7 12.1244 0
      vertex 7 12.1244 7
      vertex 17.6689 5.96468 2
    endloop
  endfacet
  facet normal 0.5 0.866025 0
    outer loop
      vertex 7 12.1244 0
      vertex 17.6689 5.96468 2
      vertex 24.54 1.99761 0
    endloop
  endfacet
  facet normal 0.5 0.866025 0
    outer loop
      vertex 17.6689 5.96468 2
      vertex 7 12.1244 7
      vertex 17.6689 5.96468 7
    endloop
  endfacet
  facet normal 0.406736 0.913546 0
    outer loop
      vertex 6 12.5696 0
      vertex 6 12.5696 7
      vertex 7 12.1244 0
    endloop
  endfacet
  facet normal 0.406736 0.913546 0
    outer loop
      vertex 7 12.1244 0
      vertex 6 12.5696 7
      vertex 7 12.1244 7
    endloop
  endfacet
  facet normal 1 0 0
    outer loop
      vertex 6 17.7406 2
      vertex 6 12.5696 0
      vertex 6 23.889 0
    endloop
  endfacet
  facet normal 1 0 0
    outer loop
      vertex 6 17.7406 2
      vertex 6 17.7406 7
      vertex 6 12.5696 7
    endloop
  endfacet
  facet normal 1 0 0
    outer loop
      vertex 6 12.5696 7
      vertex 6 12.5696 0
      vertex 6 17.7406 2
    endloop
  endfacet
  facet normal 1 0 0
    outer loop
      vertex 6 23.889 2
      vertex 6 17.7406 2
      vertex 6 23.889 0
    endloop
  endfacet
  facet normal 0.207912 0.978148 0
    outer loop
      vertex 2.58708 24.6144 0
      vertex 2.58708 24.6144 2
      vertex 6 23.889 0
    endloop
  endfacet
  facet normal 0.207912 0.978148 0
    outer loop
      vertex 6 23.889 0
      vertex 2.58708 24.6144 2
      vertex 6 23.889 2
    endloop
  endfacet
  facet normal 0 1 0
    outer loop
      vertex -2.58708 24.6144 0
      vertex -2.58708 24.6144 2
      vertex 2.58708 24.6144 0
    endloop
  endfacet
  facet normal 0 1 0
    outer loop
      vertex 2.58708 24.6144 0
      vertex -2.58708 24.6144 2
      vertex 2.58708 24.6144 2
    endloop
  endfacet
  facet normal -0.207912 0.978148 0
    outer loop
      vertex -7.64817 23.5386 0
      vertex -7.64817 23.5386 2
      vertex -2.58708 24.6144 0
    endloop
  endfacet
  facet normal -0.207912 0.978148 0
    outer loop
      vertex -2.58708 24.6144 0
      vertex -7.64817 23.5386 2
      vertex -2.58708 24.6144 2
    endloop
  endfacet
  facet normal -0.406737 0.913545 0
    outer loop
      vertex -12.375 21.4341 0
      vertex -12.375 21.4341 2
      vertex -7.64817 23.5386 0
    endloop
  endfacet
  facet normal -0.406737 0.913545 0
    outer loop
      vertex -7.64817 23.5386 0
      vertex -12.375 21.4341 2
      vertex -7.64817 23.5386 2
    endloop
  endfacet
  facet normal -0.587785 0.809017 0
    outer loop
      vertex -14 20.2535 0
      vertex -14 20.2535 2
      vertex -12.375 21.4341 0
    endloop
  endfacet
  facet normal -0.587785 0.809017 0
    outer loop
      vertex -12.375 21.4341 0
      vertex -14 20.2535 2
      vertex -12.375 21.4341 2
    endloop
  endfacet
  facet normal -1 0 0
    outer loop
      vertex -14 20.2535 2
      vertex -14 20.2535 0
      vertex -14 12.3194 2
    endloop
  endfacet
  facet normal -1 0 0
    outer loop
      vertex -14 0 0
      vertex -14 0 7
      vertex -14 12.3194 2
    endloop
  endfacet
  facet normal -1 0 0
    outer loop
      vertex -14 0 0
      vertex -14 12.3194 2
      vertex -14 20.2535 0
    endloop
  endfacet
  facet normal -1 0 0
    outer loop
      vertex -14 12.3194 2
      vertex -14 0 7
      vertex -14 12.3194 7
    endloop
  endfacet
  facet normal 0.994522 0.104528 0
    outer loop
      vertex -11 0 7
      vertex -10.7596 -2.28703 7
      vertex -10.7596 -2.28703 0
    endloop
  endfacet
  facet normal 0.994522 0.104528 0
    outer loop
      vertex -11 0 0
      vertex -11 0 7
      vertex -10.7596 -2.28703 0
    endloop
  endfacet
  facet normal 0.994522 -0.104528 0
    outer loop
      vertex -10.7596 2.28703 0
      vertex -10.7596 2.28703 7
      vertex -11 0 7
    endloop
  endfacet
  facet normal 0.994522 -0.104528 0
    outer loop
      vertex -11 0 0
      vertex -10.7596 2.28703 0
      vertex -11 0 7
    endloop
  endfacet
  facet normal 0.951056 -0.309017 0
    outer loop
      vertex -10.049 4.4741 0
      vertex -10.049 4.4741 7
      vertex -10.7596 2.28703 7
    endloop
  endfacet
  facet normal 0.951056 -0.309017 0
    outer loop
      vertex -10.7596 2.28703 0
      vertex -10.049 4.4741 0
      vertex -10.7596 2.28703 7
    endloop
  endfacet
  facet normal 0.866025 -0.5 0
    outer loop
      vertex -8.89919 6.46564 0
      vertex -8.89919 6.46564 7
      vertex -10.049 4.4741 7
    endloop
  endfacet
  facet normal 0.866025 -0.5 0
    outer loop
      vertex -10.049 4.4741 0
      vertex -8.89919 6.46564 0
      vertex -10.049 4.4741 7
    endloop
  endfacet
  facet normal 0.743145 -0.669131 0
    outer loop
      vertex -7.36044 8.17459 0
      vertex -7.36044 8.17459 7
      vertex -8.89919 6.46564 7
    endloop
  endfacet
  facet normal 0.743145 -0.669131 0
    outer loop
      vertex -8.89919 6.46564 0
      vertex -7.36044 8.17459 0
      vertex -8.89919 6.46564 7
    endloop
  endfacet
  facet normal 0.587785 -0.809017 0
    outer loop
      vertex -5.5 9.52628 0
      vertex -5.5 9.52628 7
      vertex -7.36044 8.17459 7
    endloop
  endfacet
  facet normal 0.587785 -0.809017 0
    outer loop
      vertex -7.36044 8.17459 0
      vertex -5.5 9.52628 0
      vertex -7.36044 8.17459 7
    endloop
  endfacet
  facet normal 0.406737 -0.913545 0
    outer loop
      vertex -3.39919 10.4616 0
      vertex -3.39919 10.4616 7
      vertex -5.5 9.52628 7
    endloop
  endfacet
  facet normal 0.406737 -0.913545 0
    outer loop
      vertex -5.5 9.52628 0
      vertex -3.39919 10.4616 0
      vertex -5.5 9.52628 7
    endloop
  endfacet
  facet normal 0.207912 -0.978148 0
    outer loop
      vertex -1.14981 10.9397 0
      vertex -1.14981 10.9397 7
      vertex -3.39919 10.4616 7
    endloop
  endfacet
  facet normal 0.207912 -0.978148 0
    outer loop
      vertex -3.39919 10.4616 0
      vertex -1.14981 10.9397 0
      vertex -3.39919 10.4616 7
    endloop
  endfacet
  facet normal 0 -1 0
    outer loop
      vertex 1.14981 10.9397 0
      vertex 1.14981 10.9397 7
      vertex -1.14981 10.9397 7
    endloop
  endfacet
  facet normal 0 -1 0
    outer loop
      vertex -1.14981 10.9397 0
      vertex 1.14981 10.9397 0
      vertex -1.14981 10.9397 7
    endloop
  endfacet
  facet normal -0.207912 -0.978148 0
    outer loop
      vertex 3.39919 10.4616 0
      vertex 3.39919 10.4616 7
      vertex 1.14981 10.9397 7
    endloop
  endfacet
  facet normal -0.207912 -0.978148 0
    outer loop
      vertex 1.14981 10.9397 0
      vertex 3.39919 10.4616 0
      vertex 1.14981 10.9397 7
    endloop
  endfacet
  facet normal -0.406737 -0.913545 0
    outer loop
      vertex 5.5 9.52628 0
      vertex 5.5 9.52628 7
      vertex 3.39919 10.4616 7
    endloop
  endfacet
  facet normal -0.406737 -0.913545 0
    outer loop
      vertex 3.39919 10.4616 0
      vertex 5.5 9.52628 0
      vertex 3.39919 10.4616 7
    endloop
  endfacet
  facet normal -0.587785 -0.809017 0
    outer loop
      vertex 7.36044 8.17459 0
      vertex 7.36044 8.17459 7
      vertex 5.5 9.52628 7
    endloop
  endfacet
  facet normal -0.587785 -0.809017 0
    outer loop
      vertex 5.5 9.52628 0
      vertex 7.36044 8.17459 0
      vertex 5.5 9.52628 7
    endloop
  endfacet
  facet normal -0.743145 -0.669131 0
    outer loop
      vertex 8.89919 6.46564 7
      vertex 7.36044 8.17459 7
      vertex 8.89919 6.46564 0
    endloop
  endfacet
  facet normal -0.743145 -0.669131 0
    outer loop
      vertex 8.89919 6.46564 0
      vertex 7.36044 8.17459 7
      vertex 7.36044 8.17459 0
    endloop
  endfacet
  facet normal -0.866025 -0.5 0
    outer loop
      vertex 10.049 4.4741 7
      vertex 8.89919 6.46564 7
      vertex 10.049 4.4741 0
    endloop
  endfacet
  facet normal -0.866025 -0.5 0
    outer loop
      vertex 10.049 4.4741 0
      vertex 8.89919 6.46564 7
      vertex 8.89919 6.46564 0
    endloop
  endfacet
  facet normal -0.951056 -0.309017 0
    outer loop
      vertex 10.7596 2.28703 7
      vertex 10.049 4.4741 7
      vertex 10.7596 2.28703 0
    endloop
  endfacet
  facet normal -0.951056 -0.309017 0
    outer loop
      vertex 10.7596 2.28703 0
      vertex 10.049 4.4741 7
      vertex 10.049 4.4741 0
    endloop
  endfacet
  facet normal -0.994522 -0.104528 0
    outer loop
      vertex 11 0 7
      vertex 10.7596 2.28703 7
      vertex 11 0 0
    endloop
  endfacet
  facet normal -0.994522 -0.104528 0
    outer loop
      vertex 11 0 0
      vertex 10.7596 2.28703 7
      vertex 10.7596 2.28703 0
    endloop
  endfacet
  facet normal -0.994522 0.104528 0
    outer loop
      vertex 11 0 7
      vertex 11 0 0
      vertex 10.7596 -2.28703 7
    endloop
  endfacet
  facet normal -0.994522 0.104528 0
    outer loop
      vertex 10.7596 -2.28703 7
      vertex 11 0 0
      vertex 10.7596 -2.28703 0
    endloop
  endfacet
  facet normal -0.951056 0.309017 0
    outer loop
      vertex 10.7596 -2.28703 7
      vertex 10.7596 -2.28703 0
      vertex 10.049 -4.4741 7
    endloop
  endfacet
  facet normal -0.951056 0.309017 0
    outer loop
      vertex 10.049 -4.4741 7
      vertex 10.7596 -2.28703 0
      vertex 10.049 -4.4741 0
    endloop
  endfacet
  facet normal -0.866025 0.5 0
    outer loop
      vertex 10.049 -4.4741 7
      vertex 10.049 -4.4741 0
      vertex 8.89919 -6.46564 7
    endloop
  endfacet
  facet normal -0.866025 0.5 0
    outer loop
      vertex 8.89919 -6.46564 7
      vertex 10.049 -4.4741 0
      vertex 8.89919 -6.46564 0
    endloop
  endfacet
  facet normal -0.743145 0.669131 0
    outer loop
      vertex 8.89919 -6.46564 7
      vertex 8.89919 -6.46564 0
      vertex 7.36044 -8.17459 7
    endloop
  endfacet
  facet normal -0.743145 0.669131 0
    outer loop
      vertex 7.36044 -8.17459 7
      vertex 8.89919 -6.46564 0
      vertex 7.36044 -8.17459 0
    endloop
  endfacet
  facet normal -0.587785 0.809017 0
    outer loop
      vertex 7.36044 -8.17459 7
      vertex 7.36044 -8.17459 0
      vertex 5.5 -9.52628 7
    endloop
  endfacet
  facet normal -0.587785 0.809017 0
    outer loop
      vertex 5.5 -9.52628 7
      vertex 7.36044 -8.17459 0
      vertex 5.5 -9.52628 0
    endloop
  endfacet
  facet normal -0.406737 0.913545 0
    outer loop
      vertex 5.5 -9.52628 7
      vertex 5.5 -9.52628 0
      vertex 3.39919 -10.4616 7
    endloop
  endfacet
  facet normal -0.406737 0.913545 0
    outer loop
      vertex 3.39919 -10.4616 7
      vertex 5.5 -9.52628 0
      vertex 3.39919 -10.4616 0
    endloop
  endfacet
  facet normal -0.207912 0.978148 0
    outer loop
      vertex 3.39919 -10.4616 7
      vertex 3.39919 -10.4616 0
      vertex 1.14981 -10.9397 7
    endloop
  endfacet
  facet normal -0.207912 0.978148 0
    outer loop
      vertex 1.14981 -10.9397 7
      vertex 3.39919 -10.4616 0
      vertex 1.14981 -10.9397 0
    endloop
  endfacet
  facet normal 0 1 0
    outer loop
      vertex 1.14981 -10.9397 7
      vertex 1.14981 -10.9397 0
      vertex -1.14981 -10.9397 7
    endloop
  endfacet
  facet normal 0 1 0
    outer loop
      vertex -1.14981 -10.9397 7
      vertex 1.14981 -10.9397 0
      vertex -1.14981 -10.9397 0
    endloop
  endfacet
  facet normal 0.207912 0.978148 0
    outer loop
      vertex -1.14981 -10.9397 7
      vertex -1.14981 -10.9397 0
      vertex -3.39919 -10.4616 7
    endloop
  endfacet
  facet normal 0.207912 0.978148 0
    outer loop
      vertex -3.39919 -10.4616 7
      vertex -1.14981 -10.9397 0
      vertex -3.39919 -10.4616 0
    endloop
  endfacet
  facet normal 0.406737 0.913545 0
    outer loop
      vertex -3.39919 -10.4616 7
      vertex -3.39919 -10.4616 0
      vertex -5.5 -9.52628 7
    endloop
  endfacet
  facet normal 0.406737 0.913545 0
    outer loop
      vertex -5.5 -9.52628 7
      vertex -3.39919 -10.4616 0
      vertex -5.5 -9.52628 0
    endloop
  endfacet
  facet normal 0.587785 0.809017 0
    outer loop
      vertex -5.5 -9.52628 7
      vertex -5.5 -9.52628 0
      vertex -7.36044 -8.17459 7
    endloop
  endfacet
  facet normal 0.587785 0.809017 0
    outer loop
      vertex -7.36044 -8.17459 7
      vertex -5.5 -9.52628 0
      vertex -7.36044 -8.17459 0
    endloop
  endfacet
  facet normal 0.743145 0.669131 0
    outer loop
      vertex -8.89919 -6.46564 7
      vertex -7.36044 -8.17459 7
      vertex -7.36044 -8.17459 0
    endloop
  endfacet
  facet normal 0.743145 0.669131 0
    outer loop
      vertex -8.89919 -6.46564 0
      vertex -8.89919 -6.46564 7
      vertex -7.36044 -8.17459 0
    endloop
  endfacet
  facet normal 0.866025 0.5 0
    outer loop
      vertex -10.049 -4.4741 7
      vertex -8.89919 -6.46564 7
      vertex -8.89919 -6.46564 0
    endloop
  endfacet
  facet normal 0.866025 0.5 0
    outer loop
      vertex -10.049 -4.4741 0
      vertex -10.049 -4.4741 7
      vertex -8.89919 -6.46564 0
    endloop
  endfacet
  facet normal 0.951056 0.309017 0
    outer loop
      vertex -10.7596 -2.28703 7
      vertex -10.049 -4.4741 7
      vertex -10.049 -4.4741 0
    endloop
  endfacet
  facet normal 0.951056 0.309017 0
    outer loop
      vertex -10.7596 -2.28703 0
      vertex -10.7596 -2.28703 7
      vertex -10.049 -4.4741 0
    endloop
  endfacet
  facet normal -0.743145 0.669131 0
    outer loop
      vertex -14 12.3194 2
      vertex -14 12.3194 7
      vertex -12.5462 13.934 2
    endloop
  endfacet
  facet normal -0.743145 0.669131 0
    outer loop
      vertex -12.5462 13.934 2
      vertex -14 12.3194 7
      vertex -12.5462 13.934 7
    endloop
  endfacet
  facet normal -0.587785 0.809017 0
    outer loop
      vertex -12.5462 13.934 2
      vertex -12.5462 13.934 7
      vertex -9.375 16.238 2
    endloop
  endfacet
  facet normal -0.587785 0.809017 0
    outer loop
      vertex -9.375 16.238 2
      vertex -12.5462 13.934 7
      vertex -9.375 16.238 7
    endloop
  endfacet
  facet normal -0.406737 0.913545 0
    outer loop
      vertex -9.375 16.238 2
      vertex -9.375 16.238 7
      vertex -5.79407 17.8323 2
    endloop
  endfacet
  facet normal -0.406737 0.913545 0
    outer loop
      vertex -5.79407 17.8323 2
      vertex -9.375 16.238 7
      vertex -5.79407 17.8323 7
    endloop
  endfacet
  facet normal -0.207912 0.978148 0
    outer loop
      vertex -5.79407 17.8323 2
      vertex -5.79407 17.8323 7
      vertex -1.95991 18.6473 2
    endloop
  endfacet
  facet normal -0.207912 0.978148 0
    outer loop
      vertex -1.95991 18.6473 2
      vertex -5.79407 17.8323 7
      vertex -1.95991 18.6473 7
    endloop
  endfacet
  facet normal 0 1 0
    outer loop
      vertex -1.95991 18.6473 2
      vertex -1.95991 18.6473 7
      vertex 1.95991 18.6473 2
    endloop
  endfacet
  facet normal 0 1 0
    outer loop
      vertex 1.95991 18.6473 2
      vertex -1.95991 18.6473 7
      vertex 1.95991 18.6473 7
    endloop
  endfacet
  facet normal 0.207912 0.978148 0
    outer loop
      vertex 1.95991 18.6473 2
      vertex 1.95991 18.6473 7
      vertex 5.79407 17.8323 2
    endloop
  endfacet
  facet normal 0.207912 0.978148 0
    outer loop
      vertex 5.79407 17.8323 2
      vertex 1.95991 18.6473 7
      vertex 5.79407 17.8323 7
    endloop
  endfacet
  facet normal 0.406737 0.913545 0
    outer loop
      vertex 5.79407 17.8323 2
      vertex 5.79407 17.8323 7
      vertex 6 17.7406 2
    endloop
  endfacet
  facet normal 0.406737 0.913545 0
    outer loop
      vertex 6 17.7406 2
      vertex 5.79407 17.8323 7
      vertex 6 17.7406 7
    endloop
  endfacet
  facet normal 0.951056 0.309017 0
    outer loop
      vertex 18.3403 3.89834 2
      vertex 17.6689 5.96468 2
      vertex 17.6689 5.96468 7
    endloop
  endfacet
  facet normal 0.951056 0.309017 0
    outer loop
      vertex 18.3403 3.89834 7
      vertex 18.3403 3.89834 2
      vertex 17.6689 5.96468 7
    endloop
  endfacet
  facet normal 0.994522 0.104528 0
    outer loop
      vertex 18.75 0 2
      vertex 18.3403 3.89834 2
      vertex 18.3403 3.89834 7
    endloop
  endfacet
  facet normal 0.994522 0.104528 0
    outer loop
      vertex 18.75 0 7
      vertex 18.75 0 2
      vertex 18.3403 3.89834 7
    endloop
  endfacet
  facet normal 0.994522 -0.104528 0
    outer loop
      vertex 18.3403 -3.89834 7
      vertex 18.3403 -3.89834 2
      vertex 18.75 0 2
    endloop
  endfacet
  facet normal 0.994522 -0.104528 0
    outer loop
      vertex 18.75 0 7
      vertex 18.3403 -3.89834 7
      vertex 18.75 0 2
    endloop
  endfacet
  facet normal 0.951056 -0.309017 0
    outer loop
      vertex 17.129 -7.62631 7
      vertex 17.129 -7.62631 2
      vertex 18.3403 -3.89834 2
    endloop
  endfacet
  facet normal 0.951056 -0.309017 0
    outer loop
      vertex 18.3403 -3.89834 7
      vertex 17.129 -7.62631 7
      vertex 18.3403 -3.89834 2
    endloop
  endfacet
  facet normal 0.866025 -0.5 0
    outer loop
      vertex 15.1691 -11.021 7
      vertex 15.1691 -11.021 2
      vertex 17.129 -7.62631 2
    endloop
  endfacet
  facet normal 0.866025 -0.5 0
    outer loop
      vertex 17.129 -7.62631 7
      vertex 15.1691 -11.021 7
      vertex 17.129 -7.62631 2
    endloop
  endfacet
  facet normal 0.743145 -0.669131 0
    outer loop
      vertex 12.5462 -13.934 7
      vertex 12.5462 -13.934 2
      vertex 15.1691 -11.021 2
    endloop
  endfacet
  facet normal 0.743145 -0.669131 0
    outer loop
      vertex 15.1691 -11.021 7
      vertex 12.5462 -13.934 7
      vertex 15.1691 -11.021 2
    endloop
  endfacet
  facet normal 0.587785 -0.809017 0
    outer loop
      vertex 12.3638 -14.0665 7
      vertex 12.3638 -14.0665 2
      vertex 12.5462 -13.934 2
    endloop
  endfacet
  facet normal 0.587785 -0.809017 0
    outer loop
      vertex 12.5462 -13.934 7
      vertex 12.3638 -14.0665 7
      vertex 12.5462 -13.934 2
    endloop
  endfacet
  facet normal -0.207912 -0.978148 0
    outer loop
      vertex -5.79407 -17.8323 7
      vertex -5.79407 -17.8323 2
      vertex -3.66888 -18.284 2
    endloop
  endfacet
  facet normal -0.207912 -0.978148 0
    outer loop
      vertex -3.66888 -18.284 7
      vertex -5.79407 -17.8323 7
      vertex -3.66888 -18.284 2
    endloop
  endfacet
  facet normal -0.406737 -0.913545 0
    outer loop
      vertex -9.375 -16.238 7
      vertex -9.375 -16.238 2
      vertex -5.79407 -17.8323 2
    endloop
  endfacet
  facet normal -0.406737 -0.913545 0
    outer loop
      vertex -5.79407 -17.8323 7
      vertex -9.375 -16.238 7
      vertex -5.79407 -17.8323 2
    endloop
  endfacet
  facet normal -0.587785 -0.809017 0
    outer loop
      vertex -12.5462 -13.934 7
      vertex -12.5462 -13.934 2
      vertex -9.375 -16.238 2
    endloop
  endfacet
  facet normal -0.587785 -0.809017 0
    outer loop
      vertex -9.375 -16.238 7
      vertex -12.5462 -13.934 7
      vertex -9.375 -16.238 2
    endloop
  endfacet
  facet normal -0.743145 -0.669131 0
    outer loop
      vertex -15.1691 -11.021 2
      vertex -12.5462 -13.934 2
      vertex -15.1691 -11.021 7
    endloop
  endfacet
  facet normal -0.743145 -0.669131 0
    outer loop
      vertex -15.1691 -11.021 7
      vertex -12.5462 -13.934 2
      vertex -12.5462 -13.934 7
    endloop
  endfacet
  facet normal -0.866025 -0.5 0
    outer loop
      vertex -17.129 -7.62631 2
      vertex -15.1691 -11.021 2
      vertex -17.129 -7.62631 7
    endloop
  endfacet
  facet normal -0.866025 -0.5 0
    outer loop
      vertex -17.129 -7.62631 7
      vertex -15.1691 -11.021 2
      vertex -15.1691 -11.021 7
    endloop
  endfacet
  facet normal -0.951056 -0.309017 0
    outer loop
      vertex -18.3403 -3.89834 2
      vertex -17.129 -7.62631 2
      vertex -18.3403 -3.89834 7
    endloop
  endfacet
  facet normal -0.951056 -0.309017 0
    outer loop
      vertex -18.3403 -3.89834 7
      vertex -17.129 -7.62631 2
      vertex -17.129 -7.62631 7
    endloop
  endfacet
  facet normal 0 0 1
    outer loop
      vertex 12.5462 -13.934 2
      vertex 12.3638 -14.0665 2
      vertex 17.6885 -17.1406 2
    endloop
  endfacet
  facet normal 0 0 1
    outer loop
      vertex 22.6103 -10.0667 2
      vertex 12.5462 -13.934 2
      vertex 20.0232 -14.5477 2
    endloop
  endfacet
  facet normal 0 0 1
    outer loop
      vertex 20.0232 -14.5477 2
      vertex 12.5462 -13.934 2
      vertex 17.6885 -17.1406 2
    endloop
  endfacet
  facet normal 0 0 1
    outer loop
      vertex 24.2092 -5.14581 2
      vertex 12.5462 -13.934 2
      vertex 22.6103 -10.0667 2
    endloop
  endfacet
  facet normal 0 0 1
    outer loop
      vertex 17.129 -7.62631 2
      vertex 24.75 0 2
      vertex 24.54 1.99761 2
    endloop
  endfacet
  facet normal 0 0 1
    outer loop
      vertex 17.6689 5.96468 2
      vertex 18.3403 3.89834 2
      vertex 24.54 1.99761 2
    endloop
  endfacet
  facet normal 0 0 1
    outer loop
      vertex 18.3403 3.89834 2
      vertex 18.75 0 2
      vertex 24.54 1.99761 2
    endloop
  endfacet
  facet normal 0 0 1
    outer loop
      vertex 18.75 0 2
      vertex 18.3403 -3.89834 2
      vertex 24.54 1.99761 2
    endloop
  endfacet
  facet normal 0 0 1
    outer loop
      vertex 18.3403 -3.89834 2
      vertex 17.129 -7.62631 2
      vertex 24.54 1.99761 2
    endloop
  endfacet
  facet normal 0 0 1
    outer loop
      vertex 24.75 0 2
      vertex 15.1691 -11.021 2
      vertex 24.2092 -5.14581 2
    endloop
  endfacet
  facet normal 0 0 1
    outer loop
      vertex 15.1691 -11.021 2
      vertex 12.5462 -13.934 2
      vertex 24.2092 -5.14581 2
    endloop
  endfacet
  facet normal 0 0 1
    outer loop
      vertex 17.129 -7.62631 2
      vertex 15.1691 -11.021 2
      vertex 24.75 0 2
    endloop
  endfacet
  facet normal 0 0 1
    outer loop
      vertex -5.79407 17.8323 2
      vertex -1.95991 18.6473 2
      vertex -14 20.2535 2
    endloop
  endfacet
  facet normal 0 0 1
    outer loop
      vertex -14 20.2535 2
      vertex -14 12.3194 2
      vertex -12.5462 13.934 2
    endloop
  endfacet
  facet normal 0 0 1
    outer loop
      vertex -1.95991 18.6473 2
      vertex 1.95991 18.6473 2
      vertex -14 20.2535 2
    endloop
  endfacet
  facet normal 0 0 1
    outer loop
      vertex -9.375 16.238 2
      vertex -14 20.2535 2
      vertex -12.5462 13.934 2
    endloop
  endfacet
  facet normal 0 0 1
    outer loop
      vertex -9.375 16.238 2
      vertex -5.79407 17.8323 2
      vertex -14 20.2535 2
    endloop
  endfacet
  facet normal 0 0 1
    outer loop
      vertex 1.95991 18.6473 2
      vertex 6 23.889 2
      vertex -14 20.2535 2
    endloop
  endfacet
  facet normal 0 0 1
    outer loop
      vertex 5.79407 17.8323 2
      vertex 6 23.889 2
      vertex 1.95991 18.6473 2
    endloop
  endfacet
  facet normal 0 0 1
    outer loop
      vertex 6 17.7406 2
      vertex 6 23.889 2
      vertex 5.79407 17.8323 2
    endloop
  endfacet
  facet normal 0 0 1
    outer loop
      vertex 6 23.889 2
      vertex 2.58708 24.6144 2
      vertex -14 20.2535 2
    endloop
  endfacet
  facet normal 0 0 1
    outer loop
      vertex 2.58708 24.6144 2
      vertex -2.58708 24.6144 2
      vertex -14 20.2535 2
    endloop
  endfacet
  facet normal 0 0 1
    outer loop
      vertex -2.58708 24.6144 2
      vertex -7.64817 23.5386 2
      vertex -14 20.2535 2
    endloop
  endfacet
  facet normal 0 0 1
    outer loop
      vertex -7.64817 23.5386 2
      vertex -12.375 21.4341 2
      vertex -14 20.2535 2
    endloop
  endfacet
endsolid OpenSCAD_Model
