solid OpenSCAD_Model
  facet normal -0.5 0.866025 0
    outer loop
      vertex -30.5125 -10.6882 0
      vertex -30.5125 -10.6882 2
      vertex -13.8856 -1.08864 0
    endloop
  endfacet
  facet normal -0.5 0.866025 0
    outer loop
      vertex -13.8856 -1.08864 0
      vertex -30.5125 -10.6882 2
      vertex -25.2294 -7.63798 2
    endloop
  endfacet
  facet normal -0.5 0.866025 0
    outer loop
      vertex -13.8856 -1.08864 0
      vertex -25.2294 -7.63798 2
      vertex -25.2294 -7.63798 10
    endloop
  endfacet
  facet normal -0.5 0.866025 0
    outer loop
      vertex -13.8856 -1.08864 0
      vertex -25.2294 -7.63798 10
      vertex -13.8856 -1.08864 10
    endloop
  endfacet
  facet normal -0.951057 -0.309017 0
    outer loop
      vertex -30.5125 -10.6882 0
      vertex -29.6902 -13.2189 0
      vertex -30.5125 -10.6882 2
    endloop
  endfacet
  facet normal -0.951057 -0.309017 0
    outer loop
      vertex -30.5125 -10.6882 2
      vertex -29.6902 -13.2189 0
      vertex -29.6902 -13.2189 2
    endloop
  endfacet
  facet normal 0 0 -1
    outer loop
      vertex -30.5125 -10.6882 0
      vertex -13.8856 -1.08864 0
      vertex -29.6902 -13.2189 0
    endloop
  endfacet
  facet normal 0 0 -1
    outer loop
      vertex -10.0431 30.9093 0
      vertex -13.8856 -1.08864 0
      vertex -14 29.1476 0
    endloop
  endfacet
  facet normal 0 0 -1
    outer loop
      vertex -13.8856 -1.08864 0
      vertex -14 0 0
      vertex -14 29.1476 0
    endloop
  endfacet
  facet normal 0 0 -1
    outer loop
      vertex -3.39717 32.322 0
      vertex -13.8856 -1.08864 0
      vertex -10.0431 30.9093 0
    endloop
  endfacet
  facet normal 0 0 -1
    outer loop
      vertex 3.39717 32.322 0
      vertex -13.8856 -1.08864 0
      vertex -3.39717 32.322 0
    endloop
  endfacet
  facet normal 0 0 -1
    outer loop
      vertex 6 31.7687 0
      vertex -13.8856 -1.08864 0
      vertex 3.39717 32.322 0
    endloop
  endfacet
  facet normal 0 0 -1
    outer loop
      vertex -8.89919 6.46564 0
      vertex -13.8856 -1.08864 0
      vertex 6 31.7687 0
    endloop
  endfacet
  facet normal 0 0 -1
    outer loop
      vertex 3.39919 10.4616 0
      vertex 6 12.5696 0
      vertex 7 12.1244 0
    endloop
  endfacet
  facet normal 0 0 -1
    outer loop
      vertex 10.049 -4.4741 0
      vertex 32.2426 -2.44944 0
      vertex 8.89919 -6.46564 0
    endloop
  endfacet
  facet normal 0 0 -1
    outer loop
      vertex 7.36044 -8.17459 0
      vertex 32.2426 -2.44944 0
      vertex 31.7898 -6.75713 0
    endloop
  endfacet
  facet normal 0 0 -1
    outer loop
      vertex 7.88558 -11.4809 0
      vertex 31.7898 -6.75713 0
      vertex 29.6902 -13.2189 0
    endloop
  endfacet
  facet normal 0 0 -1
    outer loop
      vertex -10.7596 2.28703 0
      vertex -13.8856 -1.08864 0
      vertex -10.049 4.4741 0
    endloop
  endfacet
  facet normal 0 0 -1
    outer loop
      vertex 3.39919 -10.4616 0
      vertex 31.7898 -6.75713 0
      vertex 7.88558 -11.4809 0
    endloop
  endfacet
  facet normal 0 0 -1
    outer loop
      vertex -18.2426 -26.6982 0
      vertex -29.6902 -13.2189 0
      vertex 7 -12.1244 0
    endloop
  endfacet
  facet normal 0 0 -1
    outer loop
      vertex -29.6902 -13.2189 0
      vertex 7.88558 -11.4809 0
      vertex 7 -12.1244 0
    endloop
  endfacet
  facet normal 0 0 -1
    outer loop
      vertex -11 0 0
      vertex -29.6902 -13.2189 0
      vertex -13.8856 -1.08864 0
    endloop
  endfacet
  facet normal 0 0 -1
    outer loop
      vertex -29.6902 -13.2189 0
      vertex -18.2426 -26.6982 0
      vertex -21.7467 -24.1522 0
    endloop
  endfacet
  facet normal 0 0 -1
    outer loop
      vertex -29.6902 -13.2189 0
      vertex -21.7467 -24.1522 0
      vertex -26.2931 -19.103 0
    endloop
  endfacet
  facet normal 0 0 -1
    outer loop
      vertex -10.7596 -2.28703 0
      vertex -29.6902 -13.2189 0
      vertex -11 0 0
    endloop
  endfacet
  facet normal 0 0 -1
    outer loop
      vertex 8.89919 6.46564 0
      vertex 7 12.1244 0
      vertex 10.049 4.4741 0
    endloop
  endfacet
  facet normal 0 0 -1
    outer loop
      vertex -5.5 -9.52628 0
      vertex -29.6902 -13.2189 0
      vertex -7.36044 -8.17459 0
    endloop
  endfacet
  facet normal 0 0 -1
    outer loop
      vertex -10.7596 -2.28703 0
      vertex -10.049 -4.4741 0
      vertex -29.6902 -13.2189 0
    endloop
  endfacet
  facet normal 0 0 -1
    outer loop
      vertex 10.7596 -2.28703 0
      vertex 32.2426 -2.44944 0
      vertex 10.049 -4.4741 0
    endloop
  endfacet
  facet normal 0 0 -1
    outer loop
      vertex -10.049 -4.4741 0
      vertex -8.89919 -6.46564 0
      vertex -29.6902 -13.2189 0
    endloop
  endfacet
  facet normal 0 0 -1
    outer loop
      vertex -8.89919 -6.46564 0
      vertex -7.36044 -8.17459 0
      vertex -29.6902 -13.2189 0
    endloop
  endfacet
  facet normal 0 0 -1
    outer loop
      vertex -3.39919 -10.4616 0
      vertex -29.6902 -13.2189 0
      vertex -5.5 -9.52628 0
    endloop
  endfacet
  facet normal 0 0 -1
    outer loop
      vertex 3.39919 -10.4616 0
      vertex 7.88558 -11.4809 0
      vertex 1.14981 -10.9397 0
    endloop
  endfacet
  facet normal 0 0 -1
    outer loop
      vertex -29.6902 -13.2189 0
      vertex -3.39919 -10.4616 0
      vertex -1.14981 -10.9397 0
    endloop
  endfacet
  facet normal 0 0 -1
    outer loop
      vertex -29.6902 -13.2189 0
      vertex -1.14981 -10.9397 0
      vertex 7.88558 -11.4809 0
    endloop
  endfacet
  facet normal 0 0 -1
    outer loop
      vertex -1.14981 -10.9397 0
      vertex 1.14981 -10.9397 0
      vertex 7.88558 -11.4809 0
    endloop
  endfacet
  facet normal 0 0 -1
    outer loop
      vertex 5.5 -9.52628 0
      vertex 31.7898 -6.75713 0
      vertex 3.39919 -10.4616 0
    endloop
  endfacet
  facet normal 0 0 -1
    outer loop
      vertex 7.36044 -8.17459 0
      vertex 31.7898 -6.75713 0
      vertex 5.5 -9.52628 0
    endloop
  endfacet
  facet normal 0 0 -1
    outer loop
      vertex 8.89919 -6.46564 0
      vertex 32.2426 -2.44944 0
      vertex 7.36044 -8.17459 0
    endloop
  endfacet
  facet normal 0 0 -1
    outer loop
      vertex 11 0 0
      vertex 32.2426 -2.44944 0
      vertex 10.7596 -2.28703 0
    endloop
  endfacet
  facet normal 0 0 -1
    outer loop
      vertex 10.7596 2.28703 0
      vertex 32.2426 -2.44944 0
      vertex 11 0 0
    endloop
  endfacet
  facet normal 0 0 -1
    outer loop
      vertex 3.39919 10.4616 0
      vertex 7 12.1244 0
      vertex 5.5 9.52628 0
    endloop
  endfacet
  facet normal 0 0 -1
    outer loop
      vertex 10.049 4.4741 0
      vertex 32.2426 -2.44944 0
      vertex 10.7596 2.28703 0
    endloop
  endfacet
  facet normal 0 0 -1
    outer loop
      vertex 7 12.1244 0
      vertex 32.2426 -2.44944 0
      vertex 10.049 4.4741 0
    endloop
  endfacet
  facet normal 0 0 -1
    outer loop
      vertex 7.36044 8.17459 0
      vertex 7 12.1244 0
      vertex 8.89919 6.46564 0
    endloop
  endfacet
  facet normal 0 0 -1
    outer loop
      vertex 7 12.1244 0
      vertex 7.36044 8.17459 0
      vertex 5.5 9.52628 0
    endloop
  endfacet
  facet normal 0 0 -1
    outer loop
      vertex 1.14981 10.9397 0
      vertex 6 12.5696 0
      vertex 3.39919 10.4616 0
    endloop
  endfacet
  facet normal 0 0 -1
    outer loop
      vertex 6 12.5696 0
      vertex 1.14981 10.9397 0
      vertex 6 31.7687 0
    endloop
  endfacet
  facet normal 0 0 -1
    outer loop
      vertex 1.14981 10.9397 0
      vertex -1.14981 10.9397 0
      vertex 6 31.7687 0
    endloop
  endfacet
  facet normal 0 0 -1
    outer loop
      vertex -1.14981 10.9397 0
      vertex -3.39919 10.4616 0
      vertex 6 31.7687 0
    endloop
  endfacet
  facet normal 0 0 -1
    outer loop
      vertex -3.39919 10.4616 0
      vertex -5.5 9.52628 0
      vertex 6 31.7687 0
    endloop
  endfacet
  facet normal 0 0 -1
    outer loop
      vertex -5.5 9.52628 0
      vertex -7.36044 8.17459 0
      vertex 6 31.7687 0
    endloop
  endfacet
  facet normal 0 0 -1
    outer loop
      vertex -10.049 4.4741 0
      vertex -13.8856 -1.08864 0
      vertex -8.89919 6.46564 0
    endloop
  endfacet
  facet normal 0 0 -1
    outer loop
      vertex -7.36044 8.17459 0
      vertex -8.89919 6.46564 0
      vertex 6 31.7687 0
    endloop
  endfacet
  facet normal 0 0 -1
    outer loop
      vertex 7.88558 -11.4809 0
      vertex 29.6902 -13.2189 0
      vertex 26.2931 -19.103 0
    endloop
  endfacet
  facet normal 0 0 -1
    outer loop
      vertex 7.88558 -11.4809 0
      vertex 26.2931 -19.103 0
      vertex 24.5125 -21.0805 0
    endloop
  endfacet
  facet normal 0 0 -1
    outer loop
      vertex -11 0 0
      vertex -13.8856 -1.08864 0
      vertex -10.7596 2.28703 0
    endloop
  endfacet
  facet normal -0.994522 -0.104529 0
    outer loop
      vertex -14 0 0
      vertex -13.8856 -1.08864 0
      vertex -14 0 10
    endloop
  endfacet
  facet normal -0.994522 -0.104529 0
    outer loop
      vertex -14 0 10
      vertex -13.8856 -1.08864 0
      vertex -13.8856 -1.08864 10
    endloop
  endfacet
  facet normal -0.994522 -0.104529 0
    outer loop
      vertex -13.8856 -1.08864 10
      vertex -13.6941 -2.91076 10
      vertex -13.6941 -2.91076 13
    endloop
  endfacet
  facet normal -0.994522 -0.104529 0
    outer loop
      vertex -13.8856 -1.08864 10
      vertex -13.6941 -2.91076 13
      vertex -14 0 10
    endloop
  endfacet
  facet normal -0.994522 -0.104529 0
    outer loop
      vertex -14 0 10
      vertex -13.6941 -2.91076 13
      vertex -14 0 13
    endloop
  endfacet
  facet normal 0 0 1
    outer loop
      vertex -13.8856 -1.08864 10
      vertex -25.2294 -7.63798 10
      vertex -24.209 -10.7785 10
    endloop
  endfacet
  facet normal 0 0 1
    outer loop
      vertex -17.732 -19.6933 10
      vertex -13.8856 -1.08864 10
      vertex -21.4389 -15.5763 10
    endloop
  endfacet
  facet normal 0 0 1
    outer loop
      vertex -21.4389 -15.5763 10
      vertex -13.8856 -1.08864 10
      vertex -24.209 -10.7785 10
    endloop
  endfacet
  facet normal 0 0 1
    outer loop
      vertex -13.25 -22.9497 10
      vertex -13.8856 -1.08864 10
      vertex -17.732 -19.6933 10
    endloop
  endfacet
  facet normal 0 0 1
    outer loop
      vertex -12.4031 -23.3267 10
      vertex -13.8856 -1.08864 10
      vertex -13.25 -22.9497 10
    endloop
  endfacet
  facet normal 0 0 1
    outer loop
      vertex -13.6941 -2.91076 10
      vertex -13.8856 -1.08864 10
      vertex -12.4031 -23.3267 10
    endloop
  endfacet
  facet normal 0 0 1
    outer loop
      vertex 7 -12.1244 10
      vertex 4.32624 -13.3148 10
      vertex -12.4031 -23.3267 10
    endloop
  endfacet
  facet normal 0 0 1
    outer loop
      vertex 4.32624 -13.3148 10
      vertex 1.4634 -13.9233 10
      vertex -12.4031 -23.3267 10
    endloop
  endfacet
  facet normal 0 0 1
    outer loop
      vertex 1.4634 -13.9233 10
      vertex -1.4634 -13.9233 10
      vertex -12.4031 -23.3267 10
    endloop
  endfacet
  facet normal 0 0 1
    outer loop
      vertex -1.4634 -13.9233 10
      vertex -4.32624 -13.3148 10
      vertex -12.4031 -23.3267 10
    endloop
  endfacet
  facet normal 0 0 1
    outer loop
      vertex -4.32624 -13.3148 10
      vertex -7 -12.1244 10
      vertex -12.4031 -23.3267 10
    endloop
  endfacet
  facet normal 0 0 1
    outer loop
      vertex -7 -12.1244 10
      vertex -9.36783 -10.404 10
      vertex -12.4031 -23.3267 10
    endloop
  endfacet
  facet normal 0 0 1
    outer loop
      vertex -9.36783 -10.404 10
      vertex -11.3262 -8.22899 10
      vertex -12.4031 -23.3267 10
    endloop
  endfacet
  facet normal 0 0 1
    outer loop
      vertex -11.3262 -8.22899 10
      vertex -12.7896 -5.69431 10
      vertex -12.4031 -23.3267 10
    endloop
  endfacet
  facet normal 0 0 1
    outer loop
      vertex -12.7896 -5.69431 10
      vertex -13.6941 -2.91076 10
      vertex -12.4031 -23.3267 10
    endloop
  endfacet
  facet normal -0.951057 -0.309017 0
    outer loop
      vertex -25.2294 -7.63798 2
      vertex -24.209 -10.7785 2
      vertex -25.2294 -7.63798 10
    endloop
  endfacet
  facet normal -0.951057 -0.309017 0
    outer loop
      vertex -25.2294 -7.63798 10
      vertex -24.209 -10.7785 2
      vertex -24.209 -10.7785 10
    endloop
  endfacet
  facet normal 0 0 1
    outer loop
      vertex -25.2294 -7.63798 2
      vertex -30.5125 -10.6882 2
      vertex -29.6902 -13.2189 2
    endloop
  endfacet
  facet normal 0 0 1
    outer loop
      vertex -21.7467 -24.1522 2
      vertex -25.2294 -7.63798 2
      vertex -26.2931 -19.103 2
    endloop
  endfacet
  facet normal 0 0 1
    outer loop
      vertex -26.2931 -19.103 2
      vertex -25.2294 -7.63798 2
      vertex -29.6902 -13.2189 2
    endloop
  endfacet
  facet normal 0 0 1
    outer loop
      vertex -24.209 -10.7785 2
      vertex -25.2294 -7.63798 2
      vertex -21.7467 -24.1522 2
    endloop
  endfacet
  facet normal 0 0 1
    outer loop
      vertex -12.4031 -23.3267 2
      vertex -13.25 -22.9497 2
      vertex -18.2426 -26.6982 2
    endloop
  endfacet
  facet normal 0 0 1
    outer loop
      vertex -13.25 -22.9497 2
      vertex -17.732 -19.6933 2
      vertex -18.2426 -26.6982 2
    endloop
  endfacet
  facet normal 0 0 1
    outer loop
      vertex -17.732 -19.6933 2
      vertex -21.4389 -15.5763 2
      vertex -18.2426 -26.6982 2
    endloop
  endfacet
  facet normal 0 0 1
    outer loop
      vertex -18.2426 -26.6982 2
      vertex -24.209 -10.7785 2
      vertex -21.7467 -24.1522 2
    endloop
  endfacet
  facet normal 0 0 1
    outer loop
      vertex -21.4389 -15.5763 2
      vertex -24.209 -10.7785 2
      vertex -18.2426 -26.6982 2
    endloop
  endfacet
  facet normal -0.866025 -0.5 0
    outer loop
      vertex -29.6902 -13.2189 0
      vertex -26.2931 -19.103 0
      vertex -29.6902 -13.2189 2
    endloop
  endfacet
  facet normal -0.866025 -0.5 0
    outer loop
      vertex -29.6902 -13.2189 2
      vertex -26.2931 -19.103 0
      vertex -26.2931 -19.103 2
    endloop
  endfacet
  facet normal -0.743145 -0.669131 0
    outer loop
      vertex -26.2931 -19.103 0
      vertex -21.7467 -24.1522 0
      vertex -26.2931 -19.103 2
    endloop
  endfacet
  facet normal -0.743145 -0.669131 0
    outer loop
      vertex -26.2931 -19.103 2
      vertex -21.7467 -24.1522 0
      vertex -21.7467 -24.1522 2
    endloop
  endfacet
  facet normal -0.587785 -0.809017 0
    outer loop
      vertex -21.7467 -24.1522 2
      vertex -21.7467 -24.1522 0
      vertex -18.2426 -26.6982 0
    endloop
  endfacet
  facet normal -0.587785 -0.809017 0
    outer loop
      vertex -18.2426 -26.6982 2
      vertex -21.7467 -24.1522 2
      vertex -18.2426 -26.6982 0
    endloop
  endfacet
  facet normal 0.5 -0.866025 0
    outer loop
      vertex -18.2426 -26.6982 2
      vertex -18.2426 -26.6982 0
      vertex 7 -12.1244 0
    endloop
  endfacet
  facet normal 0.5 -0.866025 0
    outer loop
      vertex -12.4031 -23.3267 2
      vertex -18.2426 -26.6982 2
      vertex 7 -12.1244 0
    endloop
  endfacet
  facet normal 0.5 -0.866025 0
    outer loop
      vertex 7 -12.1244 10
      vertex -12.4031 -23.3267 2
      vertex 7 -12.1244 0
    endloop
  endfacet
  facet normal 0.5 -0.866025 0
    outer loop
      vertex -12.4031 -23.3267 10
      vertex -12.4031 -23.3267 2
      vertex 7 -12.1244 10
    endloop
  endfacet
  facet normal 0.406736 -0.913546 0
    outer loop
      vertex 4.32624 -13.3148 13
      vertex 4.32624 -13.3148 10
      vertex 7 -12.1244 10
    endloop
  endfacet
  facet normal 0.406736 -0.913546 0
    outer loop
      vertex 7 -12.1244 13
      vertex 4.32624 -13.3148 13
      vertex 7 -12.1244 10
    endloop
  endfacet
  facet normal 0.406736 -0.913546 0
    outer loop
      vertex 7 -12.1244 0
      vertex 7 -12.1244 13
      vertex 7 -12.1244 10
    endloop
  endfacet
  facet normal 0.587785 -0.809017 0
    outer loop
      vertex 7 -12.1244 13
      vertex 7 -12.1244 0
      vertex 7.88558 -11.4809 0
    endloop
  endfacet
  facet normal 0.587785 -0.809017 0
    outer loop
      vertex 9.36783 -10.404 10
      vertex 7 -12.1244 13
      vertex 7.88558 -11.4809 10
    endloop
  endfacet
  facet normal 0.587785 -0.809017 0
    outer loop
      vertex 7.88558 -11.4809 10
      vertex 7 -12.1244 13
      vertex 7.88558 -11.4809 0
    endloop
  endfacet
  facet normal 0.587785 -0.809017 0
    outer loop
      vertex 9.36783 -10.404 13
      vertex 7 -12.1244 13
      vertex 9.36783 -10.404 10
    endloop
  endfacet
  facet normal -0.5 -0.866025 0
    outer loop
      vertex 19.2294 -18.0303 2
      vertex 7.88558 -11.4809 0
      vertex 24.5125 -21.0805 0
    endloop
  endfacet
  facet normal -0.5 -0.866025 0
    outer loop
      vertex 19.2294 -18.0303 2
      vertex 19.2294 -18.0303 10
      vertex 7.88558 -11.4809 10
    endloop
  endfacet
  facet normal -0.5 -0.866025 0
    outer loop
      vertex 7.88558 -11.4809 10
      vertex 7.88558 -11.4809 0
      vertex 19.2294 -18.0303 2
    endloop
  endfacet
  facet normal -0.5 -0.866025 0
    outer loop
      vertex 24.5125 -21.0805 2
      vertex 19.2294 -18.0303 2
      vertex 24.5125 -21.0805 0
    endloop
  endfacet
  facet normal 0.743145 -0.669131 0
    outer loop
      vertex 24.5125 -21.0805 2
      vertex 24.5125 -21.0805 0
      vertex 26.2931 -19.103 0
    endloop
  endfacet
  facet normal 0.743145 -0.669131 0
    outer loop
      vertex 26.2931 -19.103 2
      vertex 24.5125 -21.0805 2
      vertex 26.2931 -19.103 0
    endloop
  endfacet
  facet normal 0.866025 -0.5 0
    outer loop
      vertex 26.2931 -19.103 2
      vertex 26.2931 -19.103 0
      vertex 29.6902 -13.2189 0
    endloop
  endfacet
  facet normal 0.866025 -0.5 0
    outer loop
      vertex 29.6902 -13.2189 2
      vertex 26.2931 -19.103 2
      vertex 29.6902 -13.2189 0
    endloop
  endfacet
  facet normal 0.951057 -0.309017 0
    outer loop
      vertex 29.6902 -13.2189 2
      vertex 29.6902 -13.2189 0
      vertex 31.7898 -6.75713 0
    endloop
  endfacet
  facet normal 0.951057 -0.309017 0
    outer loop
      vertex 31.7898 -6.75713 2
      vertex 29.6902 -13.2189 2
      vertex 31.7898 -6.75713 0
    endloop
  endfacet
  facet normal 0.994522 -0.104528 0
    outer loop
      vertex 31.7898 -6.75713 2
      vertex 31.7898 -6.75713 0
      vertex 32.2426 -2.44944 0
    endloop
  endfacet
  facet normal 0.994522 -0.104528 0
    outer loop
      vertex 32.2426 -2.44944 2
      vertex 31.7898 -6.75713 2
      vertex 32.2426 -2.44944 0
    endloop
  endfacet
  facet normal 0.5 0.866025 0
    outer loop
      vertex 32.2426 -2.44944 2
      vertex 32.2426 -2.44944 0
      vertex 26.4031 0.921973 2
    endloop
  endfacet
  facet normal 0.5 0.866025 0
    outer loop
      vertex 7 12.1244 0
      vertex 7 12.1244 10
      vertex 26.4031 0.921973 2
    endloop
  endfacet
  facet normal 0.5 0.866025 0
    outer loop
      vertex 7 12.1244 0
      vertex 26.4031 0.921973 2
      vertex 32.2426 -2.44944 0
    endloop
  endfacet
  facet normal 0.5 0.866025 0
    outer loop
      vertex 26.4031 0.921973 2
      vertex 7 12.1244 10
      vertex 26.4031 0.921973 10
    endloop
  endfacet
  facet normal 0.587785 0.809017 0
    outer loop
      vertex 7 12.1244 10
      vertex 7 12.1244 13
      vertex 9.36783 10.404 13
    endloop
  endfacet
  facet normal 0.587785 0.809017 0
    outer loop
      vertex 7 12.1244 0
      vertex 7 12.1244 13
      vertex 7 12.1244 10
    endloop
  endfacet
  facet normal 0.587785 0.809017 0
    outer loop
      vertex 7 12.1244 10
      vertex 9.36783 10.404 13
      vertex 9.36783 10.404 10
    endloop
  endfacet
  facet normal 0.406736 0.913546 0
    outer loop
      vertex 4.32624 13.3148 10
      vertex 4.32624 13.3148 13
      vertex 6 12.5696 10
    endloop
  endfacet
  facet normal 0.406736 0.913546 0
    outer loop
      vertex 6 12.5696 10
      vertex 4.32624 13.3148 13
      vertex 7 12.1244 13
    endloop
  endfacet
  facet normal 0.406736 0.913546 0
    outer loop
      vertex 6 12.5696 10
      vertex 7 12.1244 13
      vertex 7 12.1244 0
    endloop
  endfacet
  facet normal 0.406736 0.913546 0
    outer loop
      vertex 6 12.5696 10
      vertex 7 12.1244 0
      vertex 6 12.5696 0
    endloop
  endfacet
  facet normal 1 0 0
    outer loop
      vertex 6 25.6683 2
      vertex 6 12.5696 0
      vertex 6 31.7687 0
    endloop
  endfacet
  facet normal 1 0 0
    outer loop
      vertex 6 25.6683 2
      vertex 6 25.6683 10
      vertex 6 12.5696 10
    endloop
  endfacet
  facet normal 1 0 0
    outer loop
      vertex 6 12.5696 10
      vertex 6 12.5696 0
      vertex 6 25.6683 2
    endloop
  endfacet
  facet normal 1 0 0
    outer loop
      vertex 6 31.7687 2
      vertex 6 25.6683 2
      vertex 6 31.7687 0
    endloop
  endfacet
  facet normal 0.207912 0.978148 0
    outer loop
      vertex 3.39717 32.322 0
      vertex 3.39717 32.322 2
      vertex 6 31.7687 0
    endloop
  endfacet
  facet normal 0.207912 0.978148 0
    outer loop
      vertex 6 31.7687 0
      vertex 3.39717 32.322 2
      vertex 6 31.7687 2
    endloop
  endfacet
  facet normal 0 1 0
    outer loop
      vertex -3.39717 32.322 0
      vertex -3.39717 32.322 2
      vertex 3.39717 32.322 0
    endloop
  endfacet
  facet normal 0 1 0
    outer loop
      vertex 3.39717 32.322 0
      vertex -3.39717 32.322 2
      vertex 3.39717 32.322 2
    endloop
  endfacet
  facet normal -0.207912 0.978148 0
    outer loop
      vertex -10.0431 30.9093 0
      vertex -10.0431 30.9093 2
      vertex -3.39717 32.322 0
    endloop
  endfacet
  facet normal -0.207912 0.978148 0
    outer loop
      vertex -3.39717 32.322 0
      vertex -10.0431 30.9093 2
      vertex -3.39717 32.322 2
    endloop
  endfacet
  facet normal -0.406737 0.913545 0
    outer loop
      vertex -14 29.1476 0
      vertex -14 29.1476 2
      vertex -10.0431 30.9093 0
    endloop
  endfacet
  facet normal -0.406737 0.913545 0
    outer loop
      vertex -10.0431 30.9093 0
      vertex -14 29.1476 2
      vertex -10.0431 30.9093 2
    endloop
  endfacet
  facet normal -1 0 0
    outer loop
      vertex -14 29.1476 2
      vertex -14 29.1476 0
      vertex -14 22.4048 2
    endloop
  endfacet
  facet normal -1 0 0
    outer loop
      vertex -14 0 0
      vertex -14 0 10
      vertex -14 22.4048 2
    endloop
  endfacet
  facet normal -1 0 0
    outer loop
      vertex -14 0 0
      vertex -14 22.4048 2
      vertex -14 29.1476 0
    endloop
  endfacet
  facet normal -1 0 0
    outer loop
      vertex -14 22.4048 2
      vertex -14 0 10
      vertex -14 22.4048 10
    endloop
  endfacet
  facet normal 0.994522 0.104528 0
    outer loop
      vertex -11 0 13
      vertex -10.7596 -2.28703 13
      vertex -10.7596 -2.28703 0
    endloop
  endfacet
  facet normal 0.994522 0.104528 0
    outer loop
      vertex -11 0 0
      vertex -11 0 13
      vertex -10.7596 -2.28703 0
    endloop
  endfacet
  facet normal 0.994522 -0.104528 0
    outer loop
      vertex -10.7596 2.28703 0
      vertex -10.7596 2.28703 13
      vertex -11 0 13
    endloop
  endfacet
  facet normal 0.994522 -0.104528 0
    outer loop
      vertex -11 0 0
      vertex -10.7596 2.28703 0
      vertex -11 0 13
    endloop
  endfacet
  facet normal 0.951056 -0.309017 0
    outer loop
      vertex -10.049 4.4741 0
      vertex -10.049 4.4741 13
      vertex -10.7596 2.28703 13
    endloop
  endfacet
  facet normal 0.951056 -0.309017 0
    outer loop
      vertex -10.7596 2.28703 0
      vertex -10.049 4.4741 0
      vertex -10.7596 2.28703 13
    endloop
  endfacet
  facet normal 0.866025 -0.5 0
    outer loop
      vertex -8.89919 6.46564 0
      vertex -8.89919 6.46564 13
      vertex -10.049 4.4741 13
    endloop
  endfacet
  facet normal 0.866025 -0.5 0
    outer loop
      vertex -10.049 4.4741 0
      vertex -8.89919 6.46564 0
      vertex -10.049 4.4741 13
    endloop
  endfacet
  facet normal 0.743145 -0.669131 0
    outer loop
      vertex -7.36044 8.17459 0
      vertex -7.36044 8.17459 13
      vertex -8.89919 6.46564 13
    endloop
  endfacet
  facet normal 0.743145 -0.669131 0
    outer loop
      vertex -8.89919 6.46564 0
      vertex -7.36044 8.17459 0
      vertex -8.89919 6.46564 13
    endloop
  endfacet
  facet normal 0.587785 -0.809017 0
    outer loop
      vertex -5.5 9.52628 0
      vertex -5.5 9.52628 13
      vertex -7.36044 8.17459 13
    endloop
  endfacet
  facet normal 0.587785 -0.809017 0
    outer loop
      vertex -7.36044 8.17459 0
      vertex -5.5 9.52628 0
      vertex -7.36044 8.17459 13
    endloop
  endfacet
  facet normal 0.406737 -0.913545 0
    outer loop
      vertex -3.39919 10.4616 0
      vertex -3.39919 10.4616 13
      vertex -5.5 9.52628 13
    endloop
  endfacet
  facet normal 0.406737 -0.913545 0
    outer loop
      vertex -5.5 9.52628 0
      vertex -3.39919 10.4616 0
      vertex -5.5 9.52628 13
    endloop
  endfacet
  facet normal 0.207912 -0.978148 0
    outer loop
      vertex -1.14981 10.9397 0
      vertex -1.14981 10.9397 13
      vertex -3.39919 10.4616 13
    endloop
  endfacet
  facet normal 0.207912 -0.978148 0
    outer loop
      vertex -3.39919 10.4616 0
      vertex -1.14981 10.9397 0
      vertex -3.39919 10.4616 13
    endloop
  endfacet
  facet normal 0 -1 0
    outer loop
      vertex 1.14981 10.9397 0
      vertex 1.14981 10.9397 13
      vertex -1.14981 10.9397 13
    endloop
  endfacet
  facet normal 0 -1 0
    outer loop
      vertex -1.14981 10.9397 0
      vertex 1.14981 10.9397 0
      vertex -1.14981 10.9397 13
    endloop
  endfacet
  facet normal -0.207912 -0.978148 0
    outer loop
      vertex 3.39919 10.4616 0
      vertex 3.39919 10.4616 13
      vertex 1.14981 10.9397 13
    endloop
  endfacet
  facet normal -0.207912 -0.978148 0
    outer loop
      vertex 1.14981 10.9397 0
      vertex 3.39919 10.4616 0
      vertex 1.14981 10.9397 13
    endloop
  endfacet
  facet normal -0.406737 -0.913545 0
    outer loop
      vertex 5.5 9.52628 0
      vertex 5.5 9.52628 13
      vertex 3.39919 10.4616 13
    endloop
  endfacet
  facet normal -0.406737 -0.913545 0
    outer loop
      vertex 3.39919 10.4616 0
      vertex 5.5 9.52628 0
      vertex 3.39919 10.4616 13
    endloop
  endfacet
  facet normal -0.587785 -0.809017 0
    outer loop
      vertex 7.36044 8.17459 0
      vertex 7.36044 8.17459 13
      vertex 5.5 9.52628 13
    endloop
  endfacet
  facet normal -0.587785 -0.809017 0
    outer loop
      vertex 5.5 9.52628 0
      vertex 7.36044 8.17459 0
      vertex 5.5 9.52628 13
    endloop
  endfacet
  facet normal -0.743145 -0.669131 0
    outer loop
      vertex 8.89919 6.46564 13
      vertex 7.36044 8.17459 13
      vertex 8.89919 6.46564 0
    endloop
  endfacet
  facet normal -0.743145 -0.669131 0
    outer loop
      vertex 8.89919 6.46564 0
      vertex 7.36044 8.17459 13
      vertex 7.36044 8.17459 0
    endloop
  endfacet
  facet normal -0.866025 -0.5 0
    outer loop
      vertex 10.049 4.4741 13
      vertex 8.89919 6.46564 13
      vertex 10.049 4.4741 0
    endloop
  endfacet
  facet normal -0.866025 -0.5 0
    outer loop
      vertex 10.049 4.4741 0
      vertex 8.89919 6.46564 13
      vertex 8.89919 6.46564 0
    endloop
  endfacet
  facet normal -0.951056 -0.309017 0
    outer loop
      vertex 10.7596 2.28703 13
      vertex 10.049 4.4741 13
      vertex 10.7596 2.28703 0
    endloop
  endfacet
  facet normal -0.951056 -0.309017 0
    outer loop
      vertex 10.7596 2.28703 0
      vertex 10.049 4.4741 13
      vertex 10.049 4.4741 0
    endloop
  endfacet
  facet normal -0.994522 -0.104528 0
    outer loop
      vertex 11 0 13
      vertex 10.7596 2.28703 13
      vertex 11 0 0
    endloop
  endfacet
  facet normal -0.994522 -0.104528 0
    outer loop
      vertex 11 0 0
      vertex 10.7596 2.28703 13
      vertex 10.7596 2.28703 0
    endloop
  endfacet
  facet normal -0.994522 0.104528 0
    outer loop
      vertex 11 0 13
      vertex 11 0 0
      vertex 10.7596 -2.28703 13
    endloop
  endfacet
  facet normal -0.994522 0.104528 0
    outer loop
      vertex 10.7596 -2.28703 13
      vertex 11 0 0
      vertex 10.7596 -2.28703 0
    endloop
  endfacet
  facet normal -0.951056 0.309017 0
    outer loop
      vertex 10.7596 -2.28703 13
      vertex 10.7596 -2.28703 0
      vertex 10.049 -4.4741 13
    endloop
  endfacet
  facet normal -0.951056 0.309017 0
    outer loop
      vertex 10.049 -4.4741 13
      vertex 10.7596 -2.28703 0
      vertex 10.049 -4.4741 0
    endloop
  endfacet
  facet normal -0.866025 0.5 0
    outer loop
      vertex 10.049 -4.4741 13
      vertex 10.049 -4.4741 0
      vertex 8.89919 -6.46564 13
    endloop
  endfacet
  facet normal -0.866025 0.5 0
    outer loop
      vertex 8.89919 -6.46564 13
      vertex 10.049 -4.4741 0
      vertex 8.89919 -6.46564 0
    endloop
  endfacet
  facet normal -0.743145 0.669131 0
    outer loop
      vertex 8.89919 -6.46564 13
      vertex 8.89919 -6.46564 0
      vertex 7.36044 -8.17459 13
    endloop
  endfacet
  facet normal -0.743145 0.669131 0
    outer loop
      vertex 7.36044 -8.17459 13
      vertex 8.89919 -6.46564 0
      vertex 7.36044 -8.17459 0
    endloop
  endfacet
  facet normal -0.587785 0.809017 0
    outer loop
      vertex 7.36044 -8.17459 13
      vertex 7.36044 -8.17459 0
      vertex 5.5 -9.52628 13
    endloop
  endfacet
  facet normal -0.587785 0.809017 0
    outer loop
      vertex 5.5 -9.52628 13
      vertex 7.36044 -8.17459 0
      vertex 5.5 -9.52628 0
    endloop
  endfacet
  facet normal -0.406737 0.913545 0
    outer loop
      vertex 5.5 -9.52628 13
      vertex 5.5 -9.52628 0
      vertex 3.39919 -10.4616 13
    endloop
  endfacet
  facet normal -0.406737 0.913545 0
    outer loop
      vertex 3.39919 -10.4616 13
      vertex 5.5 -9.52628 0
      vertex 3.39919 -10.4616 0
    endloop
  endfacet
  facet normal -0.207912 0.978148 0
    outer loop
      vertex 3.39919 -10.4616 13
      vertex 3.39919 -10.4616 0
      vertex 1.14981 -10.9397 13
    endloop
  endfacet
  facet normal -0.207912 0.978148 0
    outer loop
      vertex 1.14981 -10.9397 13
      vertex 3.39919 -10.4616 0
      vertex 1.14981 -10.9397 0
    endloop
  endfacet
  facet normal 0 1 0
    outer loop
      vertex 1.14981 -10.9397 13
      vertex 1.14981 -10.9397 0
      vertex -1.14981 -10.9397 13
    endloop
  endfacet
  facet normal 0 1 0
    outer loop
      vertex -1.14981 -10.9397 13
      vertex 1.14981 -10.9397 0
      vertex -1.14981 -10.9397 0
    endloop
  endfacet
  facet normal 0.207912 0.978148 0
    outer loop
      vertex -1.14981 -10.9397 13
      vertex -1.14981 -10.9397 0
      vertex -3.39919 -10.4616 13
    endloop
  endfacet
  facet normal 0.207912 0.978148 0
    outer loop
      vertex -3.39919 -10.4616 13
      vertex -1.14981 -10.9397 0
      vertex -3.39919 -10.4616 0
    endloop
  endfacet
  facet normal 0.406737 0.913545 0
    outer loop
      vertex -3.39919 -10.4616 13
      vertex -3.39919 -10.4616 0
      vertex -5.5 -9.52628 13
    endloop
  endfacet
  facet normal 0.406737 0.913545 0
    outer loop
      vertex -5.5 -9.52628 13
      vertex -3.39919 -10.4616 0
      vertex -5.5 -9.52628 0
    endloop
  endfacet
  facet normal 0.587785 0.809017 0
    outer loop
      vertex -5.5 -9.52628 13
      vertex -5.5 -9.52628 0
      vertex -7.36044 -8.17459 13
    endloop
  endfacet
  facet normal 0.587785 0.809017 0
    outer loop
      vertex -7.36044 -8.17459 13
      vertex -5.5 -9.52628 0
      vertex -7.36044 -8.17459 0
    endloop
  endfacet
  facet normal 0.743145 0.669131 0
    outer loop
      vertex -8.89919 -6.46564 13
      vertex -7.36044 -8.17459 13
      vertex -7.36044 -8.17459 0
    endloop
  endfacet
  facet normal 0.743145 0.669131 0
    outer loop
      vertex -8.89919 -6.46564 0
      vertex -8.89919 -6.46564 13
      vertex -7.36044 -8.17459 0
    endloop
  endfacet
  facet normal 0.866025 0.5 0
    outer loop
      vertex -10.049 -4.4741 13
      vertex -8.89919 -6.46564 13
      vertex -8.89919 -6.46564 0
    endloop
  endfacet
  facet normal 0.866025 0.5 0
    outer loop
      vertex -10.049 -4.4741 0
      vertex -10.049 -4.4741 13
      vertex -8.89919 -6.46564 0
    endloop
  endfacet
  facet normal 0.951056 0.309017 0
    outer loop
      vertex -10.7596 -2.28703 13
      vertex -10.049 -4.4741 13
      vertex -10.049 -4.4741 0
    endloop
  endfacet
  facet normal 0.951056 0.309017 0
    outer loop
      vertex -10.7596 -2.28703 0
      vertex -10.7596 -2.28703 13
      vertex -10.049 -4.4741 0
    endloop
  endfacet
  facet normal -0.994522 0.104529 0
    outer loop
      vertex -14 0 10
      vertex -14 0 13
      vertex -13.6941 2.91076 10
    endloop
  endfacet
  facet normal -0.994522 0.104529 0
    outer loop
      vertex -13.6941 2.91076 10
      vertex -14 0 13
      vertex -13.6941 2.91076 13
    endloop
  endfacet
  facet normal 0 0 1
    outer loop
      vertex -11.3262 8.22899 10
      vertex -9.36783 10.404 10
      vertex -14 22.4048 10
    endloop
  endfacet
  facet normal 0 0 1
    outer loop
      vertex -14 22.4048 10
      vertex -14 0 10
      vertex -13.6941 2.91076 10
    endloop
  endfacet
  facet normal 0 0 1
    outer loop
      vertex -9.36783 10.404 10
      vertex -7 12.1244 10
      vertex -14 22.4048 10
    endloop
  endfacet
  facet normal 0 0 1
    outer loop
      vertex -12.7896 5.69431 10
      vertex -14 22.4048 10
      vertex -13.6941 2.91076 10
    endloop
  endfacet
  facet normal 0 0 1
    outer loop
      vertex -12.7896 5.69431 10
      vertex -11.3262 8.22899 10
      vertex -14 22.4048 10
    endloop
  endfacet
  facet normal 0 0 1
    outer loop
      vertex -7 12.1244 10
      vertex -4.32624 13.3148 10
      vertex -14 22.4048 10
    endloop
  endfacet
  facet normal 0 0 1
    outer loop
      vertex -4.32624 13.3148 10
      vertex -1.4634 13.9233 10
      vertex -14 22.4048 10
    endloop
  endfacet
  facet normal 0 0 1
    outer loop
      vertex -1.4634 13.9233 10
      vertex 1.4634 13.9233 10
      vertex -14 22.4048 10
    endloop
  endfacet
  facet normal 0 0 1
    outer loop
      vertex 1.4634 13.9233 10
      vertex 4.32624 13.3148 10
      vertex -14 22.4048 10
    endloop
  endfacet
  facet normal 0 0 1
    outer loop
      vertex 4.32624 13.3148 10
      vertex 6 12.5696 10
      vertex -14 22.4048 10
    endloop
  endfacet
  facet normal 0 0 1
    outer loop
      vertex 6 12.5696 10
      vertex 6 25.6683 10
      vertex -14 22.4048 10
    endloop
  endfacet
  facet normal 0 0 1
    outer loop
      vertex 6 25.6683 10
      vertex 2.77 26.3548 10
      vertex -14 22.4048 10
    endloop
  endfacet
  facet normal 0 0 1
    outer loop
      vertex 2.77 26.3548 10
      vertex -2.77 26.3548 10
      vertex -14 22.4048 10
    endloop
  endfacet
  facet normal 0 0 1
    outer loop
      vertex -2.77 26.3548 10
      vertex -8.18895 25.203 10
      vertex -14 22.4048 10
    endloop
  endfacet
  facet normal 0 0 1
    outer loop
      vertex -8.18895 25.203 10
      vertex -13.25 22.9497 10
      vertex -14 22.4048 10
    endloop
  endfacet
  facet normal 0 0 1
    outer loop
      vertex -13.6941 2.91076 13
      vertex -14 0 13
      vertex -13.6941 -2.91076 13
    endloop
  endfacet
  facet normal 0 0 1
    outer loop
      vertex -11.3262 -8.22899 13
      vertex -13.6941 2.91076 13
      vertex -12.7896 -5.69431 13
    endloop
  endfacet
  facet normal 0 0 1
    outer loop
      vertex -12.7896 -5.69431 13
      vertex -13.6941 2.91076 13
      vertex -13.6941 -2.91076 13
    endloop
  endfacet
  facet normal 0 0 1
    outer loop
      vertex -9.36783 -10.404 13
      vertex -13.6941 2.91076 13
      vertex -11.3262 -8.22899 13
    endloop
  endfacet
  facet normal 0 0 1
    outer loop
      vertex -7 -12.1244 13
      vertex -13.6941 2.91076 13
      vertex -9.36783 -10.404 13
    endloop
  endfacet
  facet normal 0 0 1
    outer loop
      vertex -10.049 -4.4741 13
      vertex -13.6941 2.91076 13
      vertex -7 -12.1244 13
    endloop
  endfacet
  facet normal 0 0 1
    outer loop
      vertex 5.5 9.52628 13
      vertex 7.36044 8.17459 13
      vertex 9.36783 10.404 13
    endloop
  endfacet
  facet normal 0 0 1
    outer loop
      vertex 1.14981 10.9397 13
      vertex 3.39919 10.4616 13
      vertex 7 12.1244 13
    endloop
  endfacet
  facet normal 0 0 1
    outer loop
      vertex -4.32624 13.3148 13
      vertex -13.6941 2.91076 13
      vertex -1.4634 13.9233 13
    endloop
  endfacet
  facet normal 0 0 1
    outer loop
      vertex -7 12.1244 13
      vertex -13.6941 2.91076 13
      vertex -4.32624 13.3148 13
    endloop
  endfacet
  facet normal 0 0 1
    outer loop
      vertex -9.36783 10.404 13
      vertex -13.6941 2.91076 13
      vertex -7 12.1244 13
    endloop
  endfacet
  facet normal 0 0 1
    outer loop
      vertex -11.3262 8.22899 13
      vertex -13.6941 2.91076 13
      vertex -9.36783 10.404 13
    endloop
  endfacet
  facet normal 0 0 1
    outer loop
      vertex -12.7896 5.69431 13
      vertex -13.6941 2.91076 13
      vertex -11.3262 8.22899 13
    endloop
  endfacet
  facet normal 0 0 1
    outer loop
      vertex -3.39919 -10.4616 13
      vertex -5.5 -9.52628 13
      vertex -1.4634 -13.9233 13
    endloop
  endfacet
  facet normal 0 0 1
    outer loop
      vertex 8.89919 -6.46564 13
      vertex 7.36044 -8.17459 13
      vertex 11.3262 -8.22899 13
    endloop
  endfacet
  facet normal 0 0 1
    outer loop
      vertex 7.36044 8.17459 13
      vertex 8.89919 6.46564 13
      vertex 11.3262 8.22899 13
    endloop
  endfacet
  facet normal 0 0 1
    outer loop
      vertex -1.14981 10.9397 13
      vertex 1.14981 10.9397 13
      vertex 4.32624 13.3148 13
    endloop
  endfacet
  facet normal 0 0 1
    outer loop
      vertex -7.36044 8.17459 13
      vertex -13.6941 2.91076 13
      vertex -8.89919 6.46564 13
    endloop
  endfacet
  facet normal 0 0 1
    outer loop
      vertex -3.39919 10.4616 13
      vertex -1.14981 10.9397 13
      vertex 1.4634 13.9233 13
    endloop
  endfacet
  facet normal 0 0 1
    outer loop
      vertex -1.4634 13.9233 13
      vertex -13.6941 2.91076 13
      vertex -7.36044 8.17459 13
    endloop
  endfacet
  facet normal 0 0 1
    outer loop
      vertex -1.4634 13.9233 13
      vertex -5.5 9.52628 13
      vertex 1.4634 13.9233 13
    endloop
  endfacet
  facet normal 0 0 1
    outer loop
      vertex -5.5 9.52628 13
      vertex -3.39919 10.4616 13
      vertex 1.4634 13.9233 13
    endloop
  endfacet
  facet normal 0 0 1
    outer loop
      vertex 1.4634 13.9233 13
      vertex -1.14981 10.9397 13
      vertex 4.32624 13.3148 13
    endloop
  endfacet
  facet normal 0 0 1
    outer loop
      vertex -7.36044 8.17459 13
      vertex -5.5 9.52628 13
      vertex -1.4634 13.9233 13
    endloop
  endfacet
  facet normal 0 0 1
    outer loop
      vertex 4.32624 13.3148 13
      vertex 1.14981 10.9397 13
      vertex 7 12.1244 13
    endloop
  endfacet
  facet normal 0 0 1
    outer loop
      vertex 7 12.1244 13
      vertex 3.39919 10.4616 13
      vertex 9.36783 10.404 13
    endloop
  endfacet
  facet normal 0 0 1
    outer loop
      vertex 3.39919 10.4616 13
      vertex 5.5 9.52628 13
      vertex 9.36783 10.404 13
    endloop
  endfacet
  facet normal 0 0 1
    outer loop
      vertex 9.36783 10.404 13
      vertex 7.36044 8.17459 13
      vertex 11.3262 8.22899 13
    endloop
  endfacet
  facet normal 0 0 1
    outer loop
      vertex 11.3262 8.22899 13
      vertex 8.89919 6.46564 13
      vertex 12.7896 5.69431 13
    endloop
  endfacet
  facet normal 0 0 1
    outer loop
      vertex 3.39919 -10.4616 13
      vertex 1.14981 -10.9397 13
      vertex 4.32624 -13.3148 13
    endloop
  endfacet
  facet normal 0 0 1
    outer loop
      vertex 12.7896 5.69431 13
      vertex 10.049 4.4741 13
      vertex 13.6941 2.91076 13
    endloop
  endfacet
  facet normal 0 0 1
    outer loop
      vertex -10.049 4.4741 13
      vertex -8.89919 6.46564 13
      vertex -13.6941 2.91076 13
    endloop
  endfacet
  facet normal 0 0 1
    outer loop
      vertex 13.6941 2.91076 13
      vertex 10.7596 2.28703 13
      vertex 14 0 13
    endloop
  endfacet
  facet normal 0 0 1
    outer loop
      vertex 14 0 13
      vertex 11 0 13
      vertex 13.6941 -2.91076 13
    endloop
  endfacet
  facet normal 0 0 1
    outer loop
      vertex 11 0 13
      vertex 10.7596 -2.28703 13
      vertex 13.6941 -2.91076 13
    endloop
  endfacet
  facet normal 0 0 1
    outer loop
      vertex 13.6941 -2.91076 13
      vertex 10.049 -4.4741 13
      vertex 12.7896 -5.69431 13
    endloop
  endfacet
  facet normal 0 0 1
    outer loop
      vertex 12.7896 -5.69431 13
      vertex 8.89919 -6.46564 13
      vertex 11.3262 -8.22899 13
    endloop
  endfacet
  facet normal 0 0 1
    outer loop
      vertex 8.89919 6.46564 13
      vertex 10.049 4.4741 13
      vertex 12.7896 5.69431 13
    endloop
  endfacet
  facet normal 0 0 1
    outer loop
      vertex 11.3262 -8.22899 13
      vertex 7.36044 -8.17459 13
      vertex 9.36783 -10.404 13
    endloop
  endfacet
  facet normal 0 0 1
    outer loop
      vertex 10.049 4.4741 13
      vertex 10.7596 2.28703 13
      vertex 13.6941 2.91076 13
    endloop
  endfacet
  facet normal 0 0 1
    outer loop
      vertex 9.36783 -10.404 13
      vertex 5.5 -9.52628 13
      vertex 7 -12.1244 13
    endloop
  endfacet
  facet normal 0 0 1
    outer loop
      vertex 10.7596 2.28703 13
      vertex 11 0 13
      vertex 14 0 13
    endloop
  endfacet
  facet normal 0 0 1
    outer loop
      vertex 7 -12.1244 13
      vertex 3.39919 -10.4616 13
      vertex 4.32624 -13.3148 13
    endloop
  endfacet
  facet normal 0 0 1
    outer loop
      vertex 10.7596 -2.28703 13
      vertex 10.049 -4.4741 13
      vertex 13.6941 -2.91076 13
    endloop
  endfacet
  facet normal 0 0 1
    outer loop
      vertex 4.32624 -13.3148 13
      vertex 1.14981 -10.9397 13
      vertex 1.4634 -13.9233 13
    endloop
  endfacet
  facet normal 0 0 1
    outer loop
      vertex 1.14981 -10.9397 13
      vertex -1.14981 -10.9397 13
      vertex 1.4634 -13.9233 13
    endloop
  endfacet
  facet normal 0 0 1
    outer loop
      vertex 1.4634 -13.9233 13
      vertex -3.39919 -10.4616 13
      vertex -1.4634 -13.9233 13
    endloop
  endfacet
  facet normal 0 0 1
    outer loop
      vertex 7.36044 -8.17459 13
      vertex 5.5 -9.52628 13
      vertex 9.36783 -10.404 13
    endloop
  endfacet
  facet normal 0 0 1
    outer loop
      vertex -1.4634 -13.9233 13
      vertex -5.5 -9.52628 13
      vertex -4.32624 -13.3148 13
    endloop
  endfacet
  facet normal 0 0 1
    outer loop
      vertex 5.5 -9.52628 13
      vertex 3.39919 -10.4616 13
      vertex 7 -12.1244 13
    endloop
  endfacet
  facet normal 0 0 1
    outer loop
      vertex -4.32624 -13.3148 13
      vertex -7.36044 -8.17459 13
      vertex -7 -12.1244 13
    endloop
  endfacet
  facet normal 0 0 1
    outer loop
      vertex -7.36044 -8.17459 13
      vertex -8.89919 -6.46564 13
      vertex -7 -12.1244 13
    endloop
  endfacet
  facet normal 0 0 1
    outer loop
      vertex -10.7596 -2.28703 13
      vertex -13.6941 2.91076 13
      vertex -10.049 -4.4741 13
    endloop
  endfacet
  facet normal 0 0 1
    outer loop
      vertex -8.89919 -6.46564 13
      vertex -10.049 -4.4741 13
      vertex -7 -12.1244 13
    endloop
  endfacet
  facet normal 0 0 1
    outer loop
      vertex -10.7596 -2.28703 13
      vertex -11 0 13
      vertex -13.6941 2.91076 13
    endloop
  endfacet
  facet normal 0 0 1
    outer loop
      vertex -5.5 -9.52628 13
      vertex -7.36044 -8.17459 13
      vertex -4.32624 -13.3148 13
    endloop
  endfacet
  facet normal 0 0 1
    outer loop
      vertex -1.14981 -10.9397 13
      vertex -3.39919 -10.4616 13
      vertex 1.4634 -13.9233 13
    endloop
  endfacet
  facet normal 0 0 1
    outer loop
      vertex -11 0 13
      vertex -10.7596 2.28703 13
      vertex -13.6941 2.91076 13
    endloop
  endfacet
  facet normal 0 0 1
    outer loop
      vertex 10.049 -4.4741 13
      vertex 8.89919 -6.46564 13
      vertex 12.7896 -5.69431 13
    endloop
  endfacet
  facet normal 0 0 1
    outer loop
      vertex -10.7596 2.28703 13
      vertex -10.049 4.4741 13
      vertex -13.6941 2.91076 13
    endloop
  endfacet
  facet normal -0.951057 -0.309017 0
    outer loop
      vertex -13.6941 -2.91076 10
      vertex -12.7896 -5.69431 10
      vertex -13.6941 -2.91076 13
    endloop
  endfacet
  facet normal -0.951057 -0.309017 0
    outer loop
      vertex -13.6941 -2.91076 13
      vertex -12.7896 -5.69431 10
      vertex -12.7896 -5.69431 13
    endloop
  endfacet
  facet normal -0.866026 -0.5 0
    outer loop
      vertex -12.7896 -5.69431 10
      vertex -11.3262 -8.22899 10
      vertex -12.7896 -5.69431 13
    endloop
  endfacet
  facet normal -0.866026 -0.5 0
    outer loop
      vertex -12.7896 -5.69431 13
      vertex -11.3262 -8.22899 10
      vertex -11.3262 -8.22899 13
    endloop
  endfacet
  facet normal -0.743145 -0.669131 0
    outer loop
      vertex -11.3262 -8.22899 10
      vertex -9.36783 -10.404 10
      vertex -11.3262 -8.22899 13
    endloop
  endfacet
  facet normal -0.743145 -0.669131 0
    outer loop
      vertex -11.3262 -8.22899 13
      vertex -9.36783 -10.404 10
      vertex -9.36783 -10.404 13
    endloop
  endfacet
  facet normal -0.587785 -0.809017 0
    outer loop
      vertex -9.36783 -10.404 13
      vertex -9.36783 -10.404 10
      vertex -7 -12.1244 10
    endloop
  endfacet
  facet normal -0.587785 -0.809017 0
    outer loop
      vertex -7 -12.1244 13
      vertex -9.36783 -10.404 13
      vertex -7 -12.1244 10
    endloop
  endfacet
  facet normal -0.406736 -0.913546 0
    outer loop
      vertex -7 -12.1244 13
      vertex -7 -12.1244 10
      vertex -4.32624 -13.3148 10
    endloop
  endfacet
  facet normal -0.406736 -0.913546 0
    outer loop
      vertex -4.32624 -13.3148 13
      vertex -7 -12.1244 13
      vertex -4.32624 -13.3148 10
    endloop
  endfacet
  facet normal -0.207912 -0.978148 0
    outer loop
      vertex -4.32624 -13.3148 13
      vertex -4.32624 -13.3148 10
      vertex -1.4634 -13.9233 10
    endloop
  endfacet
  facet normal -0.207912 -0.978148 0
    outer loop
      vertex -1.4634 -13.9233 13
      vertex -4.32624 -13.3148 13
      vertex -1.4634 -13.9233 10
    endloop
  endfacet
  facet normal 0 -1 0
    outer loop
      vertex -1.4634 -13.9233 13
      vertex -1.4634 -13.9233 10
      vertex 1.4634 -13.9233 10
    endloop
  endfacet
  facet normal 0 -1 0
    outer loop
      vertex 1.4634 -13.9233 13
      vertex -1.4634 -13.9233 13
      vertex 1.4634 -13.9233 10
    endloop
  endfacet
  facet normal 0.207912 -0.978148 0
    outer loop
      vertex 1.4634 -13.9233 13
      vertex 1.4634 -13.9233 10
      vertex 4.32624 -13.3148 10
    endloop
  endfacet
  facet normal 0.207912 -0.978148 0
    outer loop
      vertex 4.32624 -13.3148 13
      vertex 1.4634 -13.9233 13
      vertex 4.32624 -13.3148 10
    endloop
  endfacet
  facet normal -0.406737 -0.913545 0
    outer loop
      vertex -13.25 -22.9497 10
      vertex -13.25 -22.9497 2
      vertex -12.4031 -23.3267 2
    endloop
  endfacet
  facet normal -0.406737 -0.913545 0
    outer loop
      vertex -12.4031 -23.3267 10
      vertex -13.25 -22.9497 10
      vertex -12.4031 -23.3267 2
    endloop
  endfacet
  facet normal -0.587785 -0.809017 0
    outer loop
      vertex -17.732 -19.6933 10
      vertex -17.732 -19.6933 2
      vertex -13.25 -22.9497 2
    endloop
  endfacet
  facet normal -0.587785 -0.809017 0
    outer loop
      vertex -13.25 -22.9497 10
      vertex -17.732 -19.6933 10
      vertex -13.25 -22.9497 2
    endloop
  endfacet
  facet normal -0.743145 -0.669131 0
    outer loop
      vertex -21.4389 -15.5763 2
      vertex -17.732 -19.6933 2
      vertex -21.4389 -15.5763 10
    endloop
  endfacet
  facet normal -0.743145 -0.669131 0
    outer loop
      vertex -21.4389 -15.5763 10
      vertex -17.732 -19.6933 2
      vertex -17.732 -19.6933 10
    endloop
  endfacet
  facet normal -0.866025 -0.5 0
    outer loop
      vertex -24.209 -10.7785 2
      vertex -21.4389 -15.5763 2
      vertex -24.209 -10.7785 10
    endloop
  endfacet
  facet normal -0.866025 -0.5 0
    outer loop
      vertex -24.209 -10.7785 10
      vertex -21.4389 -15.5763 2
      vertex -21.4389 -15.5763 10
    endloop
  endfacet
  facet normal 0.743145 -0.669131 0
    outer loop
      vertex 9.36783 -10.404 13
      vertex 9.36783 -10.404 10
      vertex 11.3262 -8.22899 10
    endloop
  endfacet
  facet normal 0.743145 -0.669131 0
    outer loop
      vertex 11.3262 -8.22899 13
      vertex 9.36783 -10.404 13
      vertex 11.3262 -8.22899 10
    endloop
  endfacet
  facet normal 0 0 1
    outer loop
      vertex 12.7896 5.69431 10
      vertex 13.6941 2.91076 10
      vertex 26.4031 0.921973 10
    endloop
  endfacet
  facet normal 0 0 1
    outer loop
      vertex 26.4031 0.921973 10
      vertex 7 12.1244 10
      vertex 9.36783 10.404 10
    endloop
  endfacet
  facet normal 0 0 1
    outer loop
      vertex 13.6941 2.91076 10
      vertex 14 0 10
      vertex 26.4031 0.921973 10
    endloop
  endfacet
  facet normal 0 0 1
    outer loop
      vertex 11.3262 8.22899 10
      vertex 26.4031 0.921973 10
      vertex 9.36783 10.404 10
    endloop
  endfacet
  facet normal 0 0 1
    outer loop
      vertex 11.3262 8.22899 10
      vertex 12.7896 5.69431 10
      vertex 26.4031 0.921973 10
    endloop
  endfacet
  facet normal 0 0 1
    outer loop
      vertex 14 0 10
      vertex 13.6941 -2.91076 10
      vertex 26.4031 0.921973 10
    endloop
  endfacet
  facet normal 0 0 1
    outer loop
      vertex 13.6941 -2.91076 10
      vertex 12.7896 -5.69431 10
      vertex 26.4031 0.921973 10
    endloop
  endfacet
  facet normal 0 0 1
    outer loop
      vertex 12.7896 -5.69431 10
      vertex 11.3262 -8.22899 10
      vertex 26.4031 0.921973 10
    endloop
  endfacet
  facet normal 0 0 1
    outer loop
      vertex 11.3262 -8.22899 10
      vertex 9.36783 -10.404 10
      vertex 26.4031 0.921973 10
    endloop
  endfacet
  facet normal 0 0 1
    outer loop
      vertex 9.36783 -10.404 10
      vertex 7.88558 -11.4809 10
      vertex 26.4031 0.921973 10
    endloop
  endfacet
  facet normal 0 0 1
    outer loop
      vertex 7.88558 -11.4809 10
      vertex 19.2294 -18.0303 10
      vertex 26.4031 0.921973 10
    endloop
  endfacet
  facet normal 0 0 1
    outer loop
      vertex 19.2294 -18.0303 10
      vertex 21.4389 -15.5763 10
      vertex 26.4031 0.921973 10
    endloop
  endfacet
  facet normal 0 0 1
    outer loop
      vertex 21.4389 -15.5763 10
      vertex 24.209 -10.7785 10
      vertex 26.4031 0.921973 10
    endloop
  endfacet
  facet normal 0 0 1
    outer loop
      vertex 24.209 -10.7785 10
      vertex 25.9209 -5.50966 10
      vertex 26.4031 0.921973 10
    endloop
  endfacet
  facet normal 0 0 1
    outer loop
      vertex 25.9209 -5.50966 10
      vertex 26.5 0 10
      vertex 26.4031 0.921973 10
    endloop
  endfacet
  facet normal 0.743145 -0.669131 0
    outer loop
      vertex 19.2294 -18.0303 10
      vertex 19.2294 -18.0303 2
      vertex 21.4389 -15.5763 2
    endloop
  endfacet
  facet normal 0.743145 -0.669131 0
    outer loop
      vertex 21.4389 -15.5763 10
      vertex 19.2294 -18.0303 10
      vertex 21.4389 -15.5763 2
    endloop
  endfacet
  facet normal 0 0 1
    outer loop
      vertex 21.4389 -15.5763 2
      vertex 19.2294 -18.0303 2
      vertex 24.5125 -21.0805 2
    endloop
  endfacet
  facet normal 0 0 1
    outer loop
      vertex 29.6902 -13.2189 2
      vertex 21.4389 -15.5763 2
      vertex 26.2931 -19.103 2
    endloop
  endfacet
  facet normal 0 0 1
    outer loop
      vertex 26.2931 -19.103 2
      vertex 21.4389 -15.5763 2
      vertex 24.5125 -21.0805 2
    endloop
  endfacet
  facet normal 0 0 1
    outer loop
      vertex 31.7898 -6.75713 2
      vertex 21.4389 -15.5763 2
      vertex 29.6902 -13.2189 2
    endloop
  endfacet
  facet normal 0 0 1
    outer loop
      vertex 32.2426 -2.44944 2
      vertex 21.4389 -15.5763 2
      vertex 31.7898 -6.75713 2
    endloop
  endfacet
  facet normal 0 0 1
    outer loop
      vertex 26.4031 0.921973 2
      vertex 26.5 0 2
      vertex 32.2426 -2.44944 2
    endloop
  endfacet
  facet normal 0 0 1
    outer loop
      vertex 26.5 0 2
      vertex 25.9209 -5.50966 2
      vertex 32.2426 -2.44944 2
    endloop
  endfacet
  facet normal 0 0 1
    outer loop
      vertex 25.9209 -5.50966 2
      vertex 24.209 -10.7785 2
      vertex 32.2426 -2.44944 2
    endloop
  endfacet
  facet normal 0 0 1
    outer loop
      vertex 24.209 -10.7785 2
      vertex 21.4389 -15.5763 2
      vertex 32.2426 -2.44944 2
    endloop
  endfacet
  facet normal 0.994522 0.104529 0
    outer loop
      vertex 26.5 0 2
      vertex 26.4031 0.921973 2
      vertex 26.4031 0.921973 10
    endloop
  endfacet
  facet normal 0.994522 0.104529 0
    outer loop
      vertex 26.5 0 10
      vertex 26.5 0 2
      vertex 26.4031 0.921973 10
    endloop
  endfacet
  facet normal 0.743145 0.669131 0
    outer loop
      vertex 11.3262 8.22899 10
      vertex 9.36783 10.404 10
      vertex 9.36783 10.404 13
    endloop
  endfacet
  facet normal 0.743145 0.669131 0
    outer loop
      vertex 11.3262 8.22899 13
      vertex 11.3262 8.22899 10
      vertex 9.36783 10.404 13
    endloop
  endfacet
  facet normal 0.207912 0.978148 0
    outer loop
      vertex 1.4634 13.9233 10
      vertex 1.4634 13.9233 13
      vertex 4.32624 13.3148 10
    endloop
  endfacet
  facet normal 0.207912 0.978148 0
    outer loop
      vertex 4.32624 13.3148 10
      vertex 1.4634 13.9233 13
      vertex 4.32624 13.3148 13
    endloop
  endfacet
  facet normal 0.207912 0.978148 0
    outer loop
      vertex 2.77 26.3548 2
      vertex 2.77 26.3548 10
      vertex 6 25.6683 2
    endloop
  endfacet
  facet normal 0.207912 0.978148 0
    outer loop
      vertex 6 25.6683 2
      vertex 2.77 26.3548 10
      vertex 6 25.6683 10
    endloop
  endfacet
  facet normal 0 0 1
    outer loop
      vertex -2.77 26.3548 2
      vertex 2.77 26.3548 2
      vertex -14 29.1476 2
    endloop
  endfacet
  facet normal 0 0 1
    outer loop
      vertex -14 29.1476 2
      vertex -14 22.4048 2
      vertex -13.25 22.9497 2
    endloop
  endfacet
  facet normal 0 0 1
    outer loop
      vertex 2.77 26.3548 2
      vertex 6 31.7687 2
      vertex -14 29.1476 2
    endloop
  endfacet
  facet normal 0 0 1
    outer loop
      vertex -8.18895 25.203 2
      vertex -14 29.1476 2
      vertex -13.25 22.9497 2
    endloop
  endfacet
  facet normal 0 0 1
    outer loop
      vertex -8.18895 25.203 2
      vertex -2.77 26.3548 2
      vertex -14 29.1476 2
    endloop
  endfacet
  facet normal 0 0 1
    outer loop
      vertex 6 25.6683 2
      vertex 6 31.7687 2
      vertex 2.77 26.3548 2
    endloop
  endfacet
  facet normal 0 0 1
    outer loop
      vertex 6 31.7687 2
      vertex 3.39717 32.322 2
      vertex -14 29.1476 2
    endloop
  endfacet
  facet normal 0 0 1
    outer loop
      vertex 3.39717 32.322 2
      vertex -3.39717 32.322 2
      vertex -14 29.1476 2
    endloop
  endfacet
  facet normal 0 0 1
    outer loop
      vertex -3.39717 32.322 2
      vertex -10.0431 30.9093 2
      vertex -14 29.1476 2
    endloop
  endfacet
  facet normal -0.587785 0.809017 0
    outer loop
      vertex -14 22.4048 2
      vertex -14 22.4048 10
      vertex -13.25 22.9497 2
    endloop
  endfacet
  facet normal -0.587785 0.809017 0
    outer loop
      vertex -13.25 22.9497 2
      vertex -14 22.4048 10
      vertex -13.25 22.9497 10
    endloop
  endfacet
  facet normal -0.951057 0.309017 0
    outer loop
      vertex -13.6941 2.91076 10
      vertex -13.6941 2.91076 13
      vertex -12.7896 5.69431 10
    endloop
  endfacet
  facet normal -0.951057 0.309017 0
    outer loop
      vertex -12.7896 5.69431 10
      vertex -13.6941 2.91076 13
      vertex -12.7896 5.69431 13
    endloop
  endfacet
  facet normal -0.406737 0.913545 0
    outer loop
      vertex -13.25 22.9497 2
      vertex -13.25 22.9497 10
      vertex -8.18895 25.203 2
    endloop
  endfacet
  facet normal -0.406737 0.913545 0
    outer loop
      vertex -8.18895 25.203 2
      vertex -13.25 22.9497 10
      vertex -8.18895 25.203 10
    endloop
  endfacet
  facet normal -0.207912 0.978148 0
    outer loop
      vertex -8.18895 25.203 2
      vertex -8.18895 25.203 10
      vertex -2.77 26.3548 2
    endloop
  endfacet
  facet normal -0.207912 0.978148 0
    outer loop
      vertex -2.77 26.3548 2
      vertex -8.18895 25.203 10
      vertex -2.77 26.3548 10
    endloop
  endfacet
  facet normal 0 1 0
    outer loop
      vertex -2.77 26.3548 2
      vertex -2.77 26.3548 10
      vertex 2.77 26.3548 2
    endloop
  endfacet
  facet normal 0 1 0
    outer loop
      vertex 2.77 26.3548 2
      vertex -2.77 26.3548 10
      vertex 2.77 26.3548 10
    endloop
  endfacet
  facet normal 0 1 0
    outer loop
      vertex -1.4634 13.9233 10
      vertex -1.4634 13.9233 13
      vertex 1.4634 13.9233 10
    endloop
  endfacet
  facet normal 0 1 0
    outer loop
      vertex 1.4634 13.9233 10
      vertex -1.4634 13.9233 13
      vertex 1.4634 13.9233 13
    endloop
  endfacet
  facet normal -0.207912 0.978148 0
    outer loop
      vertex -4.32624 13.3148 10
      vertex -4.32624 13.3148 13
      vertex -1.4634 13.9233 10
    endloop
  endfacet
  facet normal -0.207912 0.978148 0
    outer loop
      vertex -1.4634 13.9233 10
      vertex -4.32624 13.3148 13
      vertex -1.4634 13.9233 13
    endloop
  endfacet
  facet normal -0.406736 0.913546 0
    outer loop
      vertex -7 12.1244 10
      vertex -7 12.1244 13
      vertex -4.32624 13.3148 10
    endloop
  endfacet
  facet normal -0.406736 0.913546 0
    outer loop
      vertex -4.32624 13.3148 10
      vertex -7 12.1244 13
      vertex -4.32624 13.3148 13
    endloop
  endfacet
  facet normal -0.587785 0.809017 0
    outer loop
      vertex -9.36783 10.404 10
      vertex -9.36783 10.404 13
      vertex -7 12.1244 10
    endloop
  endfacet
  facet normal -0.587785 0.809017 0
    outer loop
      vertex -7 12.1244 10
      vertex -9.36783 10.404 13
      vertex -7 12.1244 13
    endloop
  endfacet
  facet normal -0.743145 0.669131 0
    outer loop
      vertex -11.3262 8.22899 10
      vertex -11.3262 8.22899 13
      vertex -9.36783 10.404 10
    endloop
  endfacet
  facet normal -0.743145 0.669131 0
    outer loop
      vertex -9.36783 10.404 10
      vertex -11.3262 8.22899 13
      vertex -9.36783 10.404 13
    endloop
  endfacet
  facet normal -0.866026 0.5 0
    outer loop
      vertex -12.7896 5.69431 10
      vertex -12.7896 5.69431 13
      vertex -11.3262 8.22899 10
    endloop
  endfacet
  facet normal -0.866026 0.5 0
    outer loop
      vertex -11.3262 8.22899 10
      vertex -12.7896 5.69431 13
      vertex -11.3262 8.22899 13
    endloop
  endfacet
  facet normal 0.866026 0.5 0
    outer loop
      vertex 12.7896 5.69431 10
      vertex 11.3262 8.22899 10
      vertex 11.3262 8.22899 13
    endloop
  endfacet
  facet normal 0.866026 0.5 0
    outer loop
      vertex 12.7896 5.69431 13
      vertex 12.7896 5.69431 10
      vertex 11.3262 8.22899 13
    endloop
  endfacet
  facet normal 0.951057 0.309017 0
    outer loop
      vertex 13.6941 2.91076 10
      vertex 12.7896 5.69431 10
      vertex 12.7896 5.69431 13
    endloop
  endfacet
  facet normal 0.951057 0.309017 0
    outer loop
      vertex 13.6941 2.91076 13
      vertex 13.6941 2.91076 10
      vertex 12.7896 5.69431 13
    endloop
  endfacet
  facet normal 0.994522 0.104529 0
    outer loop
      vertex 14 0 10
      vertex 13.6941 2.91076 10
      vertex 13.6941 2.91076 13
    endloop
  endfacet
  facet normal 0.994522 0.104529 0
    outer loop
      vertex 14 0 13
      vertex 14 0 10
      vertex 13.6941 2.91076 13
    endloop
  endfacet
  facet normal 0.994522 -0.104529 0
    outer loop
      vertex 13.6941 -2.91076 13
      vertex 13.6941 -2.91076 10
      vertex 14 0 10
    endloop
  endfacet
  facet normal 0.994522 -0.104529 0
    outer loop
      vertex 14 0 13
      vertex 13.6941 -2.91076 13
      vertex 14 0 10
    endloop
  endfacet
  facet normal 0.951057 -0.309017 0
    outer loop
      vertex 12.7896 -5.69431 13
      vertex 12.7896 -5.69431 10
      vertex 13.6941 -2.91076 10
    endloop
  endfacet
  facet normal 0.951057 -0.309017 0
    outer loop
      vertex 13.6941 -2.91076 13
      vertex 12.7896 -5.69431 13
      vertex 13.6941 -2.91076 10
    endloop
  endfacet
  facet normal 0.866026 -0.5 0
    outer loop
      vertex 11.3262 -8.22899 13
      vertex 11.3262 -8.22899 10
      vertex 12.7896 -5.69431 10
    endloop
  endfacet
  facet normal 0.866026 -0.5 0
    outer loop
      vertex 12.7896 -5.69431 13
      vertex 11.3262 -8.22899 13
      vertex 12.7896 -5.69431 10
    endloop
  endfacet
  facet normal 0.994522 -0.104529 0
    outer loop
      vertex 25.9209 -5.50966 10
      vertex 25.9209 -5.50966 2
      vertex 26.5 0 2
    endloop
  endfacet
  facet normal 0.994522 -0.104529 0
    outer loop
      vertex 26.5 0 10
      vertex 25.9209 -5.50966 10
      vertex 26.5 0 2
    endloop
  endfacet
  facet normal 0.951057 -0.309017 0
    outer loop
      vertex 24.209 -10.7785 10
      vertex 24.209 -10.7785 2
      vertex 25.9209 -5.50966 2
    endloop
  endfacet
  facet normal 0.951057 -0.309017 0
    outer loop
      vertex 25.9209 -5.50966 10
      vertex 24.209 -10.7785 10
      vertex 25.9209 -5.50966 2
    endloop
  endfacet
  facet normal 0.866025 -0.5 0
    outer loop
      vertex 21.4389 -15.5763 10
      vertex 21.4389 -15.5763 2
      vertex 24.209 -10.7785 2
    endloop
  endfacet
  facet normal 0.866025 -0.5 0
    outer loop
      vertex 24.209 -10.7785 10
      vertex 21.4389 -15.5763 10
      vertex 24.209 -10.7785 2
    endloop
  endfacet
endsolid OpenSCAD_Model
